<svg xmlns="http://www.w3.org/2000/svg" width="73.582" height="90.356" viewBox="0 0 73.582 90.356">
  <defs>
    <style>
      .cls-1 {
        fill: #ff6f00;
        stroke: #ff6f00;
        stroke-width: 2px;
      }
    </style>
  </defs>
  <g id="home_fill" transform="translate(-12.316 -17.649)">
    <path id="Path_50" data-name="Path 50" class="cls-1" d="M363.464,600.387v37c0,2.147-2.253,3.887-5.033,3.887H342.605V619.606c0-1.439-1.51-2.605-3.373-2.605h-14.75c-1.863,0-3.373,1.166-3.373,2.605v21.672H305.283c-2.779,0-5.033-1.74-5.033-3.887v-37c0-2.147,2.253-3.887,5.033-3.887h53.149C361.211,596.5,363.464,598.24,363.464,600.387Z" transform="translate(-282.75 -534.272)"/>
    <path id="Path_51" data-name="Path 51" class="cls-1" d="M321.229,468.365l-32.554,29.778a3.03,3.03,0,0,0,2.195,5.246h65.107a3.03,3.03,0,0,0,2.195-5.246l-32.554-29.778A3.28,3.28,0,0,0,321.229,468.365Z" transform="translate(-274.317 -448.665)"/>
  </g>
</svg>
