<svg xmlns="http://www.w3.org/2000/svg" width="32" height="72" viewBox="0 0 32 72">
  <defs>
    <style>
      .cls-1, .cls-2 {
        fill: #ff6f00;
      }

      .cls-1 {
        font-size: 65px;
        font-family: GoudyOldStyleT-Regular, Goudy Old Style;
      }
    </style>
  </defs>
  <g transform="translate(-72.5 -52.5)">
    <text id="donate_fill" class="cls-1" transform="translate(72.5 109.5)"><tspan x="0" y="0">$</tspan></text>
    <path id="donate_fill_-_Outline" data-name="donate_fill - Outline" class="cls-2" d="M15.361-49.052a2.29,2.29,0,0,1,1.4.393,1.687,1.687,0,0,1,.677,1.4v2.717a12.939,12.939,0,0,1,7.753,3.3c1.246,1.1,1.8,1.957,1.8,2.771a7.63,7.63,0,0,1-.7,3c-.427.984-1,2-1.982,2.06l-.1,0c-.54,0-1.283-.272-1.762-1.567l0-.007c-1.113-3.078-2.758-4.858-5.01-5.406v13.735a17.935,17.935,0,0,1,8.728,4.716,12.547,12.547,0,0,1,3.269,8.888,13.9,13.9,0,0,1-3.558,9.6A14.711,14.711,0,0,1,17.44,1.166v5.39l.035,1.25L17.25,8.84l-.1.157a1.886,1.886,0,0,1-1.689.731,1.958,1.958,0,0,1-2.111-2.111v-6.3a19.252,19.252,0,0,1-8.4-2.459l-.007,0C2.574-2.6,1.476-3.913,1.476-5.269A8.761,8.761,0,0,1,1.616-6.7l0-.011c.163-.913.266-1.575.306-1.968a3.768,3.768,0,0,1,.368-1.442A1.562,1.562,0,0,1,3.682-11C4.9-11,5.473-9.539,5.69-8.981A10.511,10.511,0,0,0,9.222-4.333,8.413,8.413,0,0,0,13.346-2.7V-20.488c-.175-.054-.323-.1-.447-.142a26.477,26.477,0,0,1-5.113-1.99A10.347,10.347,0,0,1,4.76-25.354l-.012-.016a11.044,11.044,0,0,1-2.193-6.653,11.732,11.732,0,0,1,3.093-8.283,14.466,14.466,0,0,1,7.7-4.09v-2.8A1.819,1.819,0,0,1,15.361-49.052Zm.079,2-.095,0v4.312l-.731.131h.731V-25.3l-1.209-.259A13.354,13.354,0,0,1,7.67-28.434a7.2,7.2,0,0,1-2.164-5.479A8.587,8.587,0,0,1,6.79-38.582a9.733,9.733,0,0,0-2.235,6.558,8.963,8.963,0,0,0,1.8,5.463,8.362,8.362,0,0,0,2.427,2.208A25.19,25.19,0,0,0,13.5-22.538l.024.008c.241.08.613.194,1.106.338l.72.21V-.65h-1a10.494,10.494,0,0,1-6.3-2.066,12.454,12.454,0,0,1-4.169-5.42c-.057.435-.151,1.021-.287,1.777a6.938,6.938,0,0,0-.112,1.091c0,.145.121.944,2.505,2.416A18.047,18.047,0,0,0,14.4-.618l.947.05V7.617a.9.9,0,0,0,.006.105.871.871,0,0,0,.094.005l.024-.109L15.44,6.57V-.551l.86-.121a12.977,12.977,0,0,0,8.093-4.106,11.8,11.8,0,0,0,3.044-8.265c0-6.194-3.672-10.07-11.226-11.849l-.771-.181Zm9.553,8.607c-.02-.065-.168-.448-1.123-1.294a10.847,10.847,0,0,0-7.43-2.84h-.4l.471.034a7.775,7.775,0,0,1,4.746,1.983,11.741,11.741,0,0,1,3,4.715c.058-.114.123-.252.195-.417A5.71,5.71,0,0,0,24.994-38.443ZM13.346-27.8v-12.75A6.428,6.428,0,0,0,9.438-38.7a6.392,6.392,0,0,0-1.931,4.783A5.214,5.214,0,0,0,9.041-29.89,10.16,10.16,0,0,0,13.346-27.8Zm2.095,5.839,1.342.489c3.562,1.3,5.943,2.65,7.279,4.133a9.225,9.225,0,0,1,2.075,6.376,9.645,9.645,0,0,1-2.613,6.854,11.325,11.325,0,0,1-6.95,3.325L15.44-.634Zm2,18.992a8.9,8.9,0,0,0,4.629-2.513,7.608,7.608,0,0,0,2.067-5.481A7.322,7.322,0,0,0,22.575-16a14.342,14.342,0,0,0-5.135-3.076Z" transform="translate(72.5 109.5)"/>
  </g>
</svg>
