<svg xmlns="http://www.w3.org/2000/svg" width="64.84" height="64.84" viewBox="0 0 64.84 64.84">
  <defs>
    <style>
      .cls-1 {
        fill: #ff6f00;
      }
    </style>
  </defs>
  <g id="widgets_fill" transform="translate(-708 -2074.16)">
    <path id="Rectangle_72" data-name="Rectangle 72" class="cls-1" d="M5,3A2,2,0,0,0,3,5V20a2,2,0,0,0,2,2H20a2,2,0,0,0,2-2V5a2,2,0,0,0-2-2H5M5,0H20a5,5,0,0,1,5,5V20a5,5,0,0,1-5,5H5a5,5,0,0,1-5-5V5A5,5,0,0,1,5,0Z" transform="translate(708 2083)"/>
    <path id="Rectangle_73" data-name="Rectangle 73" class="cls-1" d="M5,3A2,2,0,0,0,3,5V20a2,2,0,0,0,2,2H20a2,2,0,0,0,2-2V5a2,2,0,0,0-2-2H5M5,0H20a5,5,0,0,1,5,5V20a5,5,0,0,1-5,5H5a5,5,0,0,1-5-5V5A5,5,0,0,1,5,0Z" transform="translate(708 2114)"/>
    <path id="Rectangle_74" data-name="Rectangle 74" class="cls-1" d="M5,3A2,2,0,0,0,3,5V20a2,2,0,0,0,2,2H20a2,2,0,0,0,2-2V5a2,2,0,0,0-2-2H5M5,0H20a5,5,0,0,1,5,5V20a5,5,0,0,1-5,5H5a5,5,0,0,1-5-5V5A5,5,0,0,1,5,0Z" transform="translate(739 2114)"/>
    <path id="Rectangle_75" data-name="Rectangle 75" class="cls-1" d="M5,3A2,2,0,0,0,3,5V19.965a2,2,0,0,0,2,2H19.965a2,2,0,0,0,2-2V5a2,2,0,0,0-2-2H5M5,0H19.965a5,5,0,0,1,5,5V19.965a5,5,0,0,1-5,5H5a5,5,0,0,1-5-5V5A5,5,0,0,1,5,0Z" transform="translate(738.737 2086.642) rotate(-30)"/>
  </g>
</svg>
