<svg xmlns="http://www.w3.org/2000/svg" width="73.985" height="90.649" viewBox="0 0 73.985 90.649">
  <defs>
    <style>
      .cls-1 {
        fill: #fff;
      }
    </style>
  </defs>
  <g id="home_empty" transform="translate(-12.115 -17.607)">
    <path id="Path_50" data-name="Path 50" class="cls-1" d="M305.283,595.25h53.149a7.082,7.082,0,0,1,4.323,1.4,4.765,4.765,0,0,1,1.96,3.738v37a4.765,4.765,0,0,1-1.96,3.738,7.082,7.082,0,0,1-4.323,1.4H341.355V619.606c0-.641-.872-1.355-2.123-1.355h-14.75c-1.251,0-2.123.714-2.123,1.355v22.922H305.283a7.083,7.083,0,0,1-4.323-1.4A4.765,4.765,0,0,1,299,637.39v-37a4.765,4.765,0,0,1,1.96-3.738A7.083,7.083,0,0,1,305.283,595.25Zm53.149,44.777c2.05,0,3.783-1.208,3.783-2.637v-37c0-1.429-1.732-2.637-3.783-2.637H305.283c-2.05,0-3.783,1.208-3.783,2.637v37c0,1.429,1.732,2.637,3.783,2.637h14.576V619.606a3.6,3.6,0,0,1,1.474-2.832,5.161,5.161,0,0,1,3.149-1.024h14.75a5.161,5.161,0,0,1,3.149,1.024,3.6,3.6,0,0,1,1.474,2.832v20.422Z" transform="translate(-282.75 -534.272)"/>
    <path id="Path_51" data-name="Path 51" class="cls-1" d="M323.424,466.272a4.487,4.487,0,0,1,3.039,1.17l32.554,29.778a4.141,4.141,0,0,1,1.106,4.636,4.393,4.393,0,0,1-4.145,2.783H290.87a4.393,4.393,0,0,1-4.145-2.783,4.141,4.141,0,0,1,1.106-4.636l32.554-29.778A4.487,4.487,0,0,1,323.424,466.272Zm32.554,35.867a1.884,1.884,0,0,0,1.815-1.188,1.667,1.667,0,0,0-.463-1.886l-32.554-29.778a2.03,2.03,0,0,0-2.7,0l-32.554,29.778a1.667,1.667,0,0,0-.463,1.886,1.884,1.884,0,0,0,1.815,1.188Z" transform="translate(-274.317 -448.665)"/>
  </g>
</svg>
