<svg xmlns="http://www.w3.org/2000/svg" width="72" height="56" viewBox="0 0 72 56">
  <defs>
    <style>
      .cls-1 {
        fill: #ff6f00;
      }
    </style>
  </defs>
  <g id="fesivals_list_fill" transform="translate(-128.152 -2077.108)">
    <path id="Rectangle_70" data-name="Rectangle 70" class="cls-1" d="M5,3A2,2,0,0,0,3,5V9a2,2,0,0,0,2,2H67a2,2,0,0,0,2-2V5a2,2,0,0,0-2-2H5M5,0H67a5,5,0,0,1,5,5V9a5,5,0,0,1-5,5H5A5,5,0,0,1,0,9V5A5,5,0,0,1,5,0Z" transform="translate(128.152 2119.108)"/>
    <path id="Rectangle_71" data-name="Rectangle 71" class="cls-1" d="M5,3A2,2,0,0,0,3,5v6a2,2,0,0,0,2,2H67a2,2,0,0,0,2-2V5a2,2,0,0,0-2-2H5M5,0H67a5,5,0,0,1,5,5v6a5,5,0,0,1-5,5H5a5,5,0,0,1-5-5V5A5,5,0,0,1,5,0Z" transform="translate(128.152 2097.108)"/>
    <path id="Rectangle_78" data-name="Rectangle 78" class="cls-1" d="M5,3A2,2,0,0,0,3,5V9a2,2,0,0,0,2,2H67a2,2,0,0,0,2-2V5a2,2,0,0,0-2-2H5M5,0H67a5,5,0,0,1,5,5V9a5,5,0,0,1-5,5H5A5,5,0,0,1,0,9V5A5,5,0,0,1,5,0Z" transform="translate(128.152 2077.108)"/>
  </g>
</svg>
