<svg xmlns="http://www.w3.org/2000/svg" viewBox="0 0 123.34 139.36"><defs><style>.cls-1{fill:#bcbcbc;}.cls-2{fill:#707070;}.cls-3{isolation:isolate;}.cls-4{fill:none;stroke:#707070;stroke-miterlimit:4;stroke-width:0.25px;}</style></defs><g id="Layer_2" data-name="Layer 2"><g id="Layer_1-2" data-name="Layer 1"><g id="Group_178" data-name="Group 178"><g id="Group_79" data-name="Group 79"><g id="Path_48" data-name="Path 48"><path class="cls-1" d="M119.64,70.4c0,38.08-32.85,69-73.37,69A76,76,0,0,1,0,123.93c2,.13,4.05.19,6.1.19,52,0,94.23-39.65,94.23-88.57a82.59,82.59,0,0,0-1-12.76A66.62,66.62,0,0,1,119.64,70.4Z"/></g><g id="Path_49" data-name="Path 49"><path class="cls-2" d="M49.14,136.86A77,77,0,0,1,2.89,121.33l-1.33-1,1.66.11c1.92.12,4,.19,6.07.19C61,120.62,103,81.11,103,32.55a83,83,0,0,0-1-12.69l-.23-1.47,1.07,1a67.57,67.57,0,0,1,20.44,48h0c0,38.3-33.15,69.46-73.88,69.46ZM4.83,121.52a76,76,0,0,0,44.31,14.34h.32c40.18,0,72.88-30.71,72.88-68.46a66.56,66.56,0,0,0-19.08-46.21A83.16,83.16,0,0,1,104,32.55c0,49.11-42.49,89.07-94.73,89.07C7.76,121.62,6.27,121.58,4.83,121.52Z"/></g></g><g id="Group_81" data-name="Group 81"><g id="Z" class="cls-3"><g class="cls-3"><path class="cls-1" d="M76,.51,73.24,14.15l7-2.94.54,1.3-9.17,3.84-.16-.4L74.18,2.39,67.62,5.13l-.55-1.3L75.84.16Z"/></g></g><g id="Z-2" class="cls-3"><g class="cls-3"><path class="cls-1" d="M80.56,16.62,79.12,23.8l3.69-1.55.29.69-4.83,2-.09-.21,1.43-7.14-3.45,1.44-.29-.68,4.62-1.93Z"/></g></g><g id="Z-3" class="cls-3"><g class="cls-3"><path class="cls-4" d="M76,.51,73.24,14.15l7-2.94.54,1.3-9.17,3.84-.16-.4L74.18,2.39,67.62,5.13l-.55-1.3L75.84.16Z"/></g></g><g id="Z-4" class="cls-3"><g class="cls-3"><path class="cls-4" d="M80.56,16.62,79.12,23.8l3.69-1.55.29.69-4.83,2-.09-.21,1.43-7.14-3.45,1.44-.29-.68,4.62-1.93Z"/></g></g></g></g></g></g></svg>