<svg xmlns="http://www.w3.org/2000/svg" viewBox="0 0 182.63 97.01"><defs><style>.cls-1{fill:none;}.cls-2{fill:#ffecd4;}.cls-3{fill:#707070;}.cls-4{fill:#f7b57f;}.cls-5{fill:#f2ad61;}</style></defs><g id="Layer_2" data-name="Layer 2"><g id="Layer_1-2" data-name="Layer 1"><path class="cls-1" d="M132.05,15.28V15.2c0-.19.12-.34.25-.34.29,0,.57,0,.85.06a12.53,12.53,0,0,0,2.35-.39c.36-.09.71-.2,1.06-.32s.7-.24,1-.36.65-.26.95-.39.62-.26.91-.4l.42-.2.42-.19c.28-.13.51-.27.79-.4a9.52,9.52,0,0,0,2.36-1.57h0a12.14,12.14,0,0,0,2.32-3.43c.21-.37.42-.8.64-1.26s.43-.92.63-1.44a11.88,11.88,0,0,0,.87-3.52c0-.27,0-.54-.06-.82,0-.12.16-.22.36-.23h.09c.2,0,.36.11.35.23a5.29,5.29,0,0,1-.06.8A11,11,0,0,0,149,3.24c.11.35.22.67.34,1s.14.37.22.55a1.8,1.8,0,0,1,.08-.21,11.88,11.88,0,0,0,.87-3.52,5.76,5.76,0,0,1-.06-.82c0-.12.16-.22.35-.23h.09c.21,0,.37.11.36.24s0,.53-.06.8a10.4,10.4,0,0,0,.41,2.2c.1.35.22.67.34,1s.26.66.39,1,.27.61.41.89.28.59.42.86l.21.39.21.4c.13.26.29.48.42.74a9,9,0,0,0,1.67,2.22h0a12.62,12.62,0,0,0,3.64,2.19c.4.2.86.4,1.34.6s1,.41,1.53.6a14.13,14.13,0,0,0,3.74.81h0a6.22,6.22,0,0,1,.86-.06c.14,0,.24.15.25.33,0,0,0,0,0,0h0a0,0,0,0,1,0,0c0,.19-.11.34-.24.33a7.62,7.62,0,0,1-.85,0h0a11.27,11.27,0,0,0-2.31.39c-.37.09-.71.2-1.07.32s-.7.24-1,.36-.64.25-.94.39-.62.26-.91.4l-.42.2-.43.19c-.27.13-.51.27-.78.39a9.9,9.9,0,0,0-2.36,1.57l-.33-.31.33.32h0a12.12,12.12,0,0,0-2.33,3.42c-.21.37-.42.81-.63,1.26s-.43.92-.63,1.44a11.52,11.52,0,0,0-.87,3.51h0c0,.27.05.53.06.81,0,.12-.16.22-.36.23h-.09c-.2,0-.36-.11-.36-.23s0-.54.06-.8h0a10.38,10.38,0,0,0-.4-2.2c-.11-.35-.23-.67-.35-1l-.21-.54a1.8,1.8,0,0,1-.08.21,11.88,11.88,0,0,0-.87,3.52,5.55,5.55,0,0,1,.06.82c0,.12-.16.22-.36.23h-.09c-.2,0-.36-.11-.35-.23a5.29,5.29,0,0,1,.06-.8,11,11,0,0,0-.41-2.21c-.1-.34-.22-.67-.34-1s-.26-.66-.39-1-.27-.6-.41-.88-.28-.59-.42-.86l-.22-.4-.2-.4c-.14-.25-.29-.47-.42-.73a9,9,0,0,0-1.67-2.22h0a13.22,13.22,0,0,0-3.64-2.19c-.4-.19-.86-.39-1.34-.59s-1-.41-1.53-.6a14.22,14.22,0,0,0-3.75-.82l-.87.06C132.17,15.62,132.06,15.47,132.05,15.28Z"/><path class="cls-1" d="M152.66,66.29a.48.48,0,0,1-.21.64h0c-.57.2-1.14.37-1.7.53a22.48,22.48,0,0,0-4.39,2.45.42.42,0,0,1-.24.43l0,0-.59.19c-.43.32-.85.67-1.26,1A18.72,18.72,0,0,0,142,74a21.12,21.12,0,0,0-1.71,2.49,16.82,16.82,0,0,0-1.89,5,14.37,14.37,0,0,0-.22,4.85v0A15.14,15.14,0,0,0,140.74,93a19.2,19.2,0,0,0,3.6,4H9.77c-.45,0-.9,0-1.34-.06C9,96.49,9.5,96,10,95.49a16.24,16.24,0,0,0,4.55-9.12v0a12.46,12.46,0,0,0,.11-1.73,17.14,17.14,0,0,0-.08-1.76,17.49,17.49,0,0,0-.84-3.57,17.54,17.54,0,0,0-.85-1.94,18.59,18.59,0,0,0-1.41-1.67,21.78,21.78,0,0,0-7.12-4.84c-.52-.13-1-.3-1.57-.48a.45.45,0,0,1-.25-.58l0,0a.33.33,0,0,1,0-.06.14.14,0,0,1,0-.06.52.52,0,0,1,.62-.32c.53.2,1,.41,1.55.63a24.23,24.23,0,0,0,2.38.57,22.31,22.31,0,0,0-5.21-3l-.07,0c-.53-.14-1-.31-1.59-.49A.48.48,0,0,1,0,66.31l0,0a.1.1,0,0,1,0,0s0,0,0,0a.14.14,0,0,1,0-.06.53.53,0,0,1,.65-.34c.55.21,1.1.43,1.62.66h0a23.87,23.87,0,0,0,7.75,1,21.12,21.12,0,0,0,6.39-1.19,17.38,17.38,0,0,0,8.54-6.06l0,0a15.12,15.12,0,0,0,1.77-3.07,16.64,16.64,0,0,0,.6-1.72,11.19,11.19,0,0,0,.42-1.8,18.5,18.5,0,0,0,.23-3.86c0-.09,0-.17,0-.26a19.93,19.93,0,0,0-3.61-6.41c-.39-.35-.78-.72-1.15-1.12a.43.43,0,0,1,0-.6l.05,0,.07,0s0,0,0,0a.49.49,0,0,1,.69,0c.38.4.74.81,1.07,1.22s1,.86,1.47,1.26a21.16,21.16,0,0,0-3.44-5.75,15.16,15.16,0,0,1-1.22-1.19.44.44,0,0,1,0-.63l.06,0,.05,0h0l0-.05a.55.55,0,0,1,.74,0c.4.43.78.87,1.13,1.3l0,0a23,23,0,0,0,6.37,4.21,21.93,21.93,0,0,0,6.25,1.73A18.56,18.56,0,0,0,47.4,41.6h0A16.64,16.64,0,0,0,53.15,37a19.69,19.69,0,0,0,2.1-3.31,19.28,19.28,0,0,0,1.16-3A18.09,18.09,0,0,0,56,27.2c-.17-.48-.33-1-.46-1.48A.44.44,0,0,1,56,25.2h.11l0,0a.53.53,0,0,1,.63.31c.13.52.24,1,.33,1.54,0,0,0,.08,0,.12a19.34,19.34,0,0,0-.28-6c-.18-.51-.34-1-.49-1.57a.49.49,0,0,1,.39-.56h.12l.06,0a.54.54,0,0,1,.66.33c.14.55.25,1.11.35,1.64a21,21,0,0,0,3.57,6.55,20,20,0,0,0,4.67,4.27,18.05,18.05,0,0,0,10.16,3.16h0a14.9,14.9,0,0,0,3.71-.38,17.74,17.74,0,0,0,3.67-1.21,20,20,0,0,0,6.57-4.76,20.54,20.54,0,0,0,1.57-1.92q.1-.57.24-1.14a.52.52,0,0,1,.63-.3l.06,0h0a20.48,20.48,0,0,0,2-4.3v0c.09-.52.2-1.06.34-1.59a.54.54,0,0,1,.67-.32H96a.49.49,0,0,1,.43.54v0c-.15.55-.32,1.09-.5,1.62l0,.05a20.52,20.52,0,0,0-.06,7.33,18.16,18.16,0,0,0,.82,3.08,18.1,18.1,0,0,0,1.21,2.74,17.37,17.37,0,0,0,7.43,7.22h0a16.36,16.36,0,0,0,3.47,1.26,17.09,17.09,0,0,0,3.84.53,19.44,19.44,0,0,0,4.1-.25,19.94,19.94,0,0,0,4.08-1.07,22.9,22.9,0,0,0,7.77-4.8l.08-.07c.31-.4.65-.81,1-1.2a.54.54,0,0,1,.74,0l0,0h0a0,0,0,0,1,.05,0,.45.45,0,0,1,.14.63.1.1,0,0,1,0,0c-.4.43-.82.84-1.24,1.21a21.7,21.7,0,0,0-3.72,6.5,17.43,17.43,0,0,0-.8,3.1,18.19,18.19,0,0,0-.28,3,16.12,16.12,0,0,0,3,9.64h0a14.84,14.84,0,0,0,2.45,2.62A16,16,0,0,0,133.18,65a19.25,19.25,0,0,0,3.76,1.56,20.92,20.92,0,0,0,4.15.84,24.3,24.3,0,0,0,9.25-.87c.52-.23,1.06-.45,1.62-.65a.52.52,0,0,1,.65.33s0,0,0,.07Z"/><path class="cls-1" d="M182.63,43.65v.09c0,.19-.12.34-.25.33a7.91,7.91,0,0,1-.85-.06,13.41,13.41,0,0,0-2.35.39c-.37.1-.71.21-1.07.32s-.7.24-1,.36-.64.26-.94.39l-.91.4-.42.2-.43.19c-.27.13-.5.28-.78.4a9.34,9.34,0,0,0-2.36,1.57h0a12.38,12.38,0,0,0-2.33,3.43c-.21.37-.41.8-.63,1.26s-.43.92-.63,1.44a11.88,11.88,0,0,0-.87,3.52c0,.27,0,.54.06.82,0,.12-.16.22-.36.23h-.09c-.2,0-.36-.11-.36-.23,0-.27,0-.54.06-.8a10.36,10.36,0,0,0-.4-2.21l-.12-.36a11.58,11.58,0,0,0-.52,2.54h0a5.42,5.42,0,0,1,.06.81c0,.12-.16.22-.36.23h-.09c-.2,0-.36-.11-.36-.23,0-.28,0-.54.06-.8a.06.06,0,0,1,0,0,10.79,10.79,0,0,0-.41-2.17c-.11-.35-.22-.67-.34-1s-.26-.66-.39-1-.27-.61-.41-.89-.28-.58-.42-.86l-.22-.39c-.06-.13-.13-.27-.2-.4s-.29-.48-.42-.74a9,9,0,0,0-1.67-2.22h0A13.28,13.28,0,0,0,156.22,46c-.39-.19-.85-.39-1.34-.59a16.32,16.32,0,0,0-1.53-.6,14.06,14.06,0,0,0-3.74-.82h0c-.29,0-.57,0-.86.06-.13,0-.24-.15-.25-.34v-.08c0-.19.12-.34.24-.33a7.77,7.77,0,0,1,.85.05h0a12.52,12.52,0,0,0,2.35-.38l1.06-.32c.36-.11.71-.24,1-.36l.95-.39.91-.4.42-.2.43-.2c.27-.12.5-.27.78-.39a9.34,9.34,0,0,0,2.36-1.57h0a12.09,12.09,0,0,0,2.32-3.42c.21-.37.42-.81.64-1.26s.43-.92.63-1.44a11.88,11.88,0,0,0,.87-3.52,5.76,5.76,0,0,1-.06-.82c0-.12.16-.22.35-.23h.1c.2,0,.36.11.35.24a5.39,5.39,0,0,1-.06.8,11.07,11.07,0,0,0,.41,2.2l.12.38a11.84,11.84,0,0,0,.52-2.57,5.55,5.55,0,0,1-.06-.82c0-.12.15-.22.35-.23h.1c.2,0,.36.11.35.23a5.19,5.19,0,0,1-.06.8,11,11,0,0,0,.41,2.21c.1.35.22.67.34,1s.26.66.39,1,.27.61.41.89.28.58.42.86l.21.39.21.4c.14.26.29.48.42.74a9,9,0,0,0,1.67,2.21h0a13.08,13.08,0,0,0,3.64,2.19c.4.19.86.39,1.34.59s1,.41,1.53.6a13.83,13.83,0,0,0,3.75.82,8.46,8.46,0,0,1,.87,0C182.51,43.31,182.62,43.46,182.63,43.65Z"/><path class="cls-2" d="M142.75,71.67a21.48,21.48,0,0,0-4.42,3.08A18,18,0,0,0,136.22,77a18.68,18.68,0,0,0-1.61,2.34,15.27,15.27,0,0,0-1.78,4.71,13.5,13.5,0,0,0-.21,4.57v0a14.3,14.3,0,0,0,2.44,6.3A17.34,17.34,0,0,0,136.7,97H12.17a15.29,15.29,0,0,0,4-8.35v0a9.85,9.85,0,0,0,.1-1.63,13.17,13.17,0,0,0-.07-1.66A16,16,0,0,0,15.47,82a2,2,0,0,0-.1-.26,16.93,16.93,0,0,0-1.52-3c-.3-.46-.61-.91-.95-1.35a18.59,18.59,0,0,0-1.41-1.67,21.78,21.78,0,0,0-7.12-4.84c-.52-.13-1-.3-1.57-.48a.45.45,0,0,1-.25-.58l0,0a.33.33,0,0,1,0-.06.14.14,0,0,1,0-.06.52.52,0,0,1,.62-.32c.53.2,1,.41,1.55.63a24.23,24.23,0,0,0,2.38.57q.9.15,1.8.24a23.23,23.23,0,0,0,3.12.09,20,20,0,0,0,6-1.12,16.39,16.39,0,0,0,8-5.7l0,0a14.61,14.61,0,0,0,1.66-2.9,13.4,13.4,0,0,0,.57-1.61,12.7,12.7,0,0,0,.4-1.7A18.46,18.46,0,0,0,29,54.14c0-.36-.06-.71-.1-1.07a20,20,0,0,0-.51-2.63c-.09-.33-.19-.66-.3-1a19.93,19.93,0,0,0-3.61-6.41c-.39-.35-.78-.72-1.15-1.12a.43.43,0,0,1,0-.6l.05,0,.07,0s0,0,0,0a.49.49,0,0,1,.69,0c.38.4.74.81,1.07,1.22s1,.86,1.47,1.26.92.69,1.4,1a21.82,21.82,0,0,0,3.15,1.72,20.8,20.8,0,0,0,5.89,1.63,17.47,17.47,0,0,0,9.94-1.55h0a15.59,15.59,0,0,0,5.4-4.37,18.09,18.09,0,0,0,2-3.12,18.33,18.33,0,0,0,1.64-5.17A18.93,18.93,0,0,0,56,27.2c-.17-.48-.33-1-.46-1.48A.44.44,0,0,1,56,25.2h.11l0,0a.53.53,0,0,1,.63.31c.13.52.24,1,.33,1.54,0,0,0,.08,0,.12A17.17,17.17,0,0,0,57.84,29a19.34,19.34,0,0,0,2.58,4.21,18.9,18.9,0,0,0,4.4,4,17,17,0,0,0,9.58,3h0a13.62,13.62,0,0,0,3.49-.36,16.87,16.87,0,0,0,3.46-1.13,19,19,0,0,0,6.19-4.49,19.77,19.77,0,0,0,3.28-4.84,17.94,17.94,0,0,0,1-2.36c0-.12,0-.25.07-.38q.1-.57.24-1.14a.52.52,0,0,1,.63-.3l.06,0h.08a.46.46,0,0,1,.4.51v0c-.1.37-.21.73-.34,1.09,0,.14-.09.29-.14.43a19.27,19.27,0,0,0-.07,6.94,16.23,16.23,0,0,0,.78,2.91,15.91,15.91,0,0,0,1.13,2.57,16.35,16.35,0,0,0,7,6.8l0,0a15.16,15.16,0,0,0,3.26,1.19,17.06,17.06,0,0,0,3.62.5,19.31,19.31,0,0,0,3.87-.24,18.89,18.89,0,0,0,3.84-1,21.59,21.59,0,0,0,7.32-4.52c.25-.31.5-.61.78-.92.08-.09.16-.19.25-.28a.48.48,0,0,1,.47-.11.4.4,0,0,1,.23.12l0,.05.06,0a.43.43,0,0,1,.12.6l0,0c-.38.4-.77.79-1.17,1.14a20.15,20.15,0,0,0-3.5,6.12,17.9,17.9,0,0,0-1,5.69A15.14,15.14,0,0,0,122.67,64v0A13.93,13.93,0,0,0,125,66.47a14.61,14.61,0,0,0,3,2A18.15,18.15,0,0,0,131.48,70a19.23,19.23,0,0,0,3.91.79,22.88,22.88,0,0,0,8.71-.82c.39-.17.79-.33,1.2-.49l.32-.12a.5.5,0,0,1,.62.31s0,0,0,.07l0,0a.37.37,0,0,1,.05.17.42.42,0,0,1-.24.43l0,0-.59.19-1,.31C143.88,71.11,143.3,71.38,142.75,71.67Z"/><path class="cls-3" d="M96.38,19.52v0c-.15.55-.32,1.09-.5,1.62l0,.05a22.66,22.66,0,0,1-1.39,3.15,0,0,0,0,1,0,0h0a21.15,21.15,0,0,1-1.52,2.44,21,21,0,0,1-2.1,2.53c-.3.31-.6.61-.92.9a21.41,21.41,0,0,1-5.85,3.87,18.5,18.5,0,0,1-7.68,1.67h0v-.91a14.9,14.9,0,0,0,3.71-.38,17.74,17.74,0,0,0,3.67-1.21,20,20,0,0,0,6.57-4.76,20.54,20.54,0,0,0,1.57-1.92,16.61,16.61,0,0,0,.94-1.42,20.48,20.48,0,0,0,2-4.3v0c.19-.52.35-1,.49-1.58a.49.49,0,0,1,.52-.33H96A.49.49,0,0,1,96.38,19.52Z"/><path class="cls-3" d="M105.29,41.59l-.46.8h0a18.4,18.4,0,0,1-8.46-8.89,20.06,20.06,0,0,1-1-2.7,21.73,21.73,0,0,1-.85-6.41h0a21.37,21.37,0,0,1,.34-3.48v0c.09-.52.2-1.06.34-1.59a.54.54,0,0,1,.67-.32h.06a.45.45,0,0,1,.36.53c-.14.55-.27,1.11-.36,1.65,0,0,0,0,0,.05a20.52,20.52,0,0,0-.06,7.33,18.16,18.16,0,0,0,.82,3.08,18.1,18.1,0,0,0,1.21,2.74,17.37,17.37,0,0,0,7.43,7.22Z"/><path class="cls-3" d="M130.64,36.71a.1.1,0,0,1,0,0c-.4.43-.82.84-1.24,1.21a23,23,0,0,1-2.82,2.2h0c-.47.32-1,.63-1.45.92l-.72.39a23.54,23.54,0,0,1-11.87,2.78,18.21,18.21,0,0,1-4-.57,16.91,16.91,0,0,1-3.63-1.3h0l.45-.8a16.36,16.36,0,0,0,3.47,1.26,17.09,17.09,0,0,0,3.84.53,19.44,19.44,0,0,0,4.1-.25,19.94,19.94,0,0,0,4.08-1.07,22.9,22.9,0,0,0,7.77-4.8l.08-.07c.39-.35.77-.73,1.13-1.12a.5.5,0,0,1,.67,0h0a0,0,0,0,1,.05,0A.45.45,0,0,1,130.64,36.71Z"/><path class="cls-3" d="M130.5,36.67a16.83,16.83,0,0,0-1.14,1.3,21.7,21.7,0,0,0-3.72,6.5,17.43,17.43,0,0,0-.8,3.1,18.19,18.19,0,0,0-.28,3,16.12,16.12,0,0,0,3,9.64h0l-.79.52h0a16.76,16.76,0,0,1-3.15-8.89,18.6,18.6,0,0,1,0-2.69,18,18,0,0,1,.43-2.84,21.74,21.74,0,0,1,2.43-6.07h0a20.87,20.87,0,0,1,2-2.9l.07-.08c.31-.4.65-.81,1-1.2a.54.54,0,0,1,.74,0l0,0h0A.45.45,0,0,1,130.5,36.67Z"/><path class="cls-3" d="M152.45,66.93h0c-.57.2-1.14.37-1.7.53a24.8,24.8,0,0,1-3.61.72h0a23.85,23.85,0,0,1-14.44-2.5,18.34,18.34,0,0,1-3.28-2.25,15.19,15.19,0,0,1-2.57-2.74h0l.8-.52h0a14.84,14.84,0,0,0,2.45,2.62A16,16,0,0,0,133.18,65a19.25,19.25,0,0,0,3.76,1.56,20.92,20.92,0,0,0,4.15.84,24.3,24.3,0,0,0,9.25-.87c.56-.15,1.11-.32,1.66-.52a.51.51,0,0,1,.63.27l0,.06A.48.48,0,0,1,152.45,66.93Z"/><path class="cls-3" d="M152.36,66.82a14.33,14.33,0,0,0-1.64.65,22.48,22.48,0,0,0-4.39,2.45c-.29.2-.58.41-.86.64-.43.32-.85.67-1.26,1A18.72,18.72,0,0,0,142,74a21.12,21.12,0,0,0-1.71,2.49,16.82,16.82,0,0,0-1.89,5,14.37,14.37,0,0,0-.22,4.85v0l-1,.11v0a16.67,16.67,0,0,1,1.63-9.24,17.55,17.55,0,0,1,1.37-2.37A19,19,0,0,1,142,72.5c.26-.28.52-.56.79-.83a24.52,24.52,0,0,1,2.55-2.23,20,20,0,0,1,1.8-1.25h0a22.17,22.17,0,0,1,3.23-1.71c.52-.23,1.06-.45,1.62-.65a.52.52,0,0,1,.65.33s0,0,0,.07A.48.48,0,0,1,152.36,66.82Z"/><path class="cls-3" d="M144.34,97H143a19.81,19.81,0,0,1-3-3.55A15.64,15.64,0,0,1,138.11,90a16.27,16.27,0,0,1-.92-3.55v0l1-.11A15.14,15.14,0,0,0,140.74,93,19.2,19.2,0,0,0,144.34,97Z"/><path class="cls-3" d="M15.51,86.45v0A17,17,0,0,1,11.6,95.1,19.45,19.45,0,0,1,9.77,97c-.45,0-.9,0-1.34-.06C9,96.49,9.5,96,10,95.49a16.24,16.24,0,0,0,4.55-9.12v0Z"/><path class="cls-3" d="M15.62,84.62a12.13,12.13,0,0,1-.1,1.81v0h0l-.95-.11a12.46,12.46,0,0,0,.11-1.73,17.14,17.14,0,0,0-.08-1.76,17.49,17.49,0,0,0-.84-3.57,17.54,17.54,0,0,0-.85-1.94A17.12,17.12,0,0,0,12,75.78a21.43,21.43,0,0,0-2.51-3.2A22,22,0,0,0,7.17,70.5a22.31,22.31,0,0,0-5.21-3l-.07,0a15,15,0,0,0-1.54-.61.45.45,0,0,1-.26-.58s0,0,0,0a.14.14,0,0,1,0-.06.53.53,0,0,1,.65-.34c.55.21,1.1.43,1.62.66h0a25,25,0,0,1,3.19,1.7A23.3,23.3,0,0,1,9,70.74a23,23,0,0,1,2.32,2.42,24,24,0,0,1,2,2.85,20.58,20.58,0,0,1,1.4,3.06,17.73,17.73,0,0,1,.72,2.66c.07.35.13.7.17,1.06A12.46,12.46,0,0,1,15.62,84.62Z"/><path class="cls-3" d="M25.9,60.69v0a18.1,18.1,0,0,1-7.73,5.91,22.77,22.77,0,0,1-5.68,1.55,25.16,25.16,0,0,1-6.88,0A22.61,22.61,0,0,1,2,67.44l-.07,0c-.53-.14-1-.31-1.59-.49A.48.48,0,0,1,0,66.31l0,0a.1.1,0,0,1,0,0s0,0,0,0A.52.52,0,0,1,.71,66c.56.2,1.11.38,1.67.53h0a23.87,23.87,0,0,0,7.75,1,21.12,21.12,0,0,0,6.39-1.19,17.38,17.38,0,0,0,8.54-6.06l0,0Z"/><path class="cls-3" d="M29.09,50.46a20.67,20.67,0,0,1-.17,2.61c0,.24-.06.47-.1.71a17.44,17.44,0,0,1-1.07,3.68,16.15,16.15,0,0,1-1.83,3.21l0,0-.79-.52a15.12,15.12,0,0,0,1.77-3.07,16.64,16.64,0,0,0,.6-1.72,11.19,11.19,0,0,0,.42-1.8,18.5,18.5,0,0,0,.23-3.86c0-.09,0-.17,0-.26a19.26,19.26,0,0,0-.62-3.68,21.4,21.4,0,0,0-.71-2.09,21.16,21.16,0,0,0-3.44-5.75c-.35-.44-.72-.86-1.11-1.27a.44.44,0,0,1,0-.63h0l0-.05a.55.55,0,0,1,.74,0c.4.43.78.87,1.13,1.3l0,0a23.09,23.09,0,0,1,2,2.87,21.69,21.69,0,0,1,2,4.52,20.87,20.87,0,0,1,.59,2.36A21.5,21.5,0,0,1,29.09,50.46Z"/><path class="cls-3" d="M47.88,42.39h0a19.5,19.5,0,0,1-9.77,1.87,23,23,0,0,1-5.8-1.11,23.39,23.39,0,0,1-6.11-3,20.42,20.42,0,0,1-2.84-2.24,15.16,15.16,0,0,1-1.22-1.19.44.44,0,0,1,0-.63l.06,0,.05,0h0a.53.53,0,0,1,.67,0,15.73,15.73,0,0,0,1.23,1.22h0l0,0a23,23,0,0,0,6.37,4.21,21.93,21.93,0,0,0,6.25,1.73A18.56,18.56,0,0,0,47.4,41.6h0Z"/><path class="cls-3" d="M58.24,24.36a20.3,20.3,0,0,1-4.38,13.17,19.23,19.23,0,0,1-2.76,2.8,18.3,18.3,0,0,1-1.55,1.11,12.89,12.89,0,0,1-1.66.94h0l-.46-.8A16.64,16.64,0,0,0,53.15,37a19.69,19.69,0,0,0,2.1-3.31,19.28,19.28,0,0,0,1.16-3,18.09,18.09,0,0,0,.7-3.5,19.34,19.34,0,0,0-.28-6,16,16,0,0,0-.35-1.61.45.45,0,0,1,.35-.53h0l.06,0a.54.54,0,0,1,.66.33c.14.55.25,1.11.35,1.64A21,21,0,0,1,58.24,24.36Z"/><path class="cls-3" d="M76.35,34.89v.9h0a18.83,18.83,0,0,1-9.57-2.61,21.18,21.18,0,0,1-4.59-3.51,22.3,22.3,0,0,1-3.93-5.31,23.45,23.45,0,0,1-1.41-3.25c-.18-.51-.34-1-.49-1.57a.49.49,0,0,1,.39-.56h.12a.5.5,0,0,1,.58.33c.14.54.3,1.08.49,1.61a21,21,0,0,0,3.57,6.55,20,20,0,0,0,4.67,4.27,18.05,18.05,0,0,0,10.16,3.16Z"/><path class="cls-4" d="M122.21,93.41c0,1.21,0,2.41-.16,3.6H30.66c-.11-1.19-.16-2.39-.16-3.6,0-23.8,20.53-43.1,45.86-43.1S122.21,69.61,122.21,93.41Z"/><path class="cls-3" d="M76.36,49.81C50.79,49.81,30,69.37,30,93.41c0,1.21.05,2.41.16,3.6h1c-.11-1.19-.16-2.39-.16-3.6,0-23.49,20.35-42.6,45.36-42.6s45.35,19.11,45.35,42.6c0,1.21,0,2.41-.16,3.6h1c.11-1.19.16-2.39.16-3.6C122.71,69.37,101.92,49.81,76.36,49.81Z"/><path class="cls-5" d="M182.63,43.65v.09c0,.19-.12.34-.25.33a7.91,7.91,0,0,1-.85-.06,13.41,13.41,0,0,0-2.35.39c-.37.1-.71.21-1.07.32s-.7.24-1,.36-.64.26-.94.39l-.91.4-.42.2-.43.19c-.27.13-.5.28-.78.4a9.34,9.34,0,0,0-2.36,1.57h0a12.38,12.38,0,0,0-2.33,3.43c-.21.37-.41.8-.63,1.26s-.43.92-.63,1.44a11.88,11.88,0,0,0-.87,3.52c0,.27,0,.54.06.82,0,.12-.16.22-.36.23h-.09c-.2,0-.36-.11-.36-.23,0-.27,0-.54.06-.8a10.36,10.36,0,0,0-.4-2.21l-.12-.36c-.08-.22-.15-.43-.23-.64l-.05-.14-.33-.83c-.13-.31-.27-.6-.41-.88s-.28-.59-.42-.86l-.22-.4c-.06-.13-.13-.26-.2-.4s-.29-.47-.42-.73a9.31,9.31,0,0,0-1.67-2.22h0A13.37,13.37,0,0,0,158,46c-.4-.19-.86-.39-1.35-.59a16.32,16.32,0,0,0-1.53-.6,13.32,13.32,0,0,0-1.74-.51,13.62,13.62,0,0,0-2-.31l-.87.06a.21.21,0,0,1-.2-.16.35.35,0,0,1-.05-.18v-.08a.35.35,0,0,1,.05-.18.21.21,0,0,1,.2-.16c.29,0,.57,0,.85.06a12.77,12.77,0,0,0,2-.31l.32-.08c.36-.09.71-.2,1.06-.32s.7-.24,1-.36.64-.26.94-.39.63-.26.92-.4l.42-.2.42-.19c.28-.13.51-.27.79-.4a9.52,9.52,0,0,0,2.36-1.57,12,12,0,0,0,2.33-3.43c.21-.37.42-.8.63-1.26a15.09,15.09,0,0,0,.64-1.44,1.46,1.46,0,0,0,.07-.19,6.92,6.92,0,0,0,.28-.76,11.84,11.84,0,0,0,.52-2.57,5.55,5.55,0,0,1-.06-.82c0-.12.15-.22.35-.23h.1c.2,0,.36.11.35.23a5.19,5.19,0,0,1-.06.8,11,11,0,0,0,.41,2.21c.1.35.22.67.34,1s.26.66.39,1,.27.61.41.89.28.58.42.86l.21.39.21.4c.14.26.29.48.42.74a9,9,0,0,0,1.67,2.21h0a13.08,13.08,0,0,0,3.64,2.19c.4.19.86.39,1.34.59s1,.41,1.53.6a13.83,13.83,0,0,0,3.75.82,8.46,8.46,0,0,1,.87,0C182.51,43.31,182.62,43.46,182.63,43.65Z"/><path class="cls-3" d="M160.21,39.48h0A10.06,10.06,0,0,1,157.82,41c-.4.23-.9.44-1.36.68l-.75.35-.77.36-.84.35-.75.3-.11,0a17.09,17.09,0,0,1-1.88.59,10,10,0,0,1-1.09.22,5,5,0,0,1-.66.1h0c-.29,0-.57,0-.86.06-.13,0-.24-.15-.25-.34v0c0-.17.12-.29.25-.29a5.9,5.9,0,0,0,.84,0h0a12.52,12.52,0,0,0,2.35-.38l1.06-.32c.36-.11.71-.24,1-.36l.95-.39.91-.4.42-.2.43-.2c.27-.12.5-.27.78-.39a9.34,9.34,0,0,0,2.36-1.57Z"/><path class="cls-3" d="M160.21,47.92l-.33.3h0A13.28,13.28,0,0,0,156.22,46c-.39-.19-.85-.39-1.34-.59a16.32,16.32,0,0,0-1.53-.6,14.06,14.06,0,0,0-3.74-.82h0q-.43,0-.87,0c-.12,0-.22-.12-.24-.29v0c0-.19.12-.34.24-.33a7.77,7.77,0,0,1,.85.05h0a5.31,5.31,0,0,1,.68.1,10,10,0,0,1,1.09.22,17.5,17.5,0,0,1,2,.63,12.5,12.5,0,0,1,1.2.48c.49.2.91.4,1.32.59s.79.38,1.16.56a12.09,12.09,0,0,1,3.18,1.95Z"/><path class="cls-3" d="M165.1,58.69c0,.12-.16.22-.36.23h0c-.18,0-.31-.11-.31-.23s0-.53,0-.8v0a10.79,10.79,0,0,0-.41-2.17c-.11-.35-.22-.67-.34-1s-.26-.66-.39-1-.27-.61-.41-.89-.28-.58-.42-.86l-.22-.39c-.06-.13-.13-.27-.2-.4s-.29-.48-.42-.74a9,9,0,0,0-1.67-2.22l.32-.31h0a9.55,9.55,0,0,1,1.64,2.25c.24.37.47.84.72,1.27l.37.71c.13.23.26.48.39.73s.24.53.37.78l.36.8a14.29,14.29,0,0,1,.62,1.77h0a9.21,9.21,0,0,1,.35,1.64h0A5.42,5.42,0,0,1,165.1,58.69Z"/><path class="cls-3" d="M169.51,48.23h0a12.09,12.09,0,0,0-2.32,3.42c-.21.37-.42.81-.64,1.26s-.43.92-.63,1.44c-.13.32-.25.64-.35,1a11.58,11.58,0,0,0-.52,2.54h0a5.62,5.62,0,0,0,0,.82c0,.11-.11.19-.27.22h-.09c-.2,0-.36-.11-.36-.23,0-.28,0-.54.06-.8a.06.06,0,0,1,0,0,9.81,9.81,0,0,1,.33-1.63h0a15.72,15.72,0,0,1,.59-1.67c.18-.45.38-.89.59-1.31s.43-.85.63-1.24.41-.75.59-1.09a11.14,11.14,0,0,1,2.08-3h0Z"/><path class="cls-3" d="M169.18,47.91h0l.33.31a9.9,9.9,0,0,1,2.36-1.57c.28-.12.51-.26.78-.39l.43-.19.42-.2c.29-.14.6-.27.91-.4s.62-.27,1-.39.67-.25,1-.36.7-.23,1.06-.32A11.77,11.77,0,0,1,179.8,44c.28,0,.57,0,.85,0,.12,0,.23-.12.25-.3v0c0-.18-.12-.34-.25-.33a6.36,6.36,0,0,0-.87.06,11.6,11.6,0,0,0-1.76.32,16.33,16.33,0,0,0-1.88.59c-.3.11-.58.22-.85.34l-.84.35-.77.36c-.25.11-.52.23-.75.35-.46.23-1,.44-1.36.67A9.94,9.94,0,0,0,169.18,47.91Z"/><path class="cls-3" d="M169.51,39.17l-.33.31h0a12.09,12.09,0,0,0,3.18,1.95c.37.18.73.37,1.16.56s.83.39,1.32.59A20,20,0,0,0,178,43.7a11.85,11.85,0,0,0,1.78.32,7.92,7.92,0,0,0,.85,0c.13,0,.24-.14.25-.33v-.05c0-.16-.12-.29-.25-.29a6.33,6.33,0,0,1-.87,0,14.2,14.2,0,0,1-3.75-.81c-.55-.19-1.07-.4-1.53-.6s-.94-.4-1.34-.6a12.75,12.75,0,0,1-3.64-2.19Z"/><path class="cls-3" d="M169.51,39.17l-.33.31h0a9.5,9.5,0,0,1-1.64-2.24c-.24-.38-.47-.85-.72-1.28-.13-.22-.25-.48-.37-.71s-.26-.47-.39-.72-.24-.54-.37-.79a8.4,8.4,0,0,1-.36-.8l0-.09a13.2,13.2,0,0,1-.59-1.67h0a10.16,10.16,0,0,1-.34-1.64,5.76,5.76,0,0,1-.06-.82c0-.12.16-.22.35-.23h.05c.18,0,.31.11.31.23s0,.53,0,.8a11.07,11.07,0,0,0,.41,2.2l.12.38c.07.21.14.41.22.62s.26.66.39,1,.27.61.41.89.28.59.42.86l.22.39.2.4c.14.26.29.48.42.74A9,9,0,0,0,169.51,39.17Z"/><path class="cls-3" d="M165.09,28.7a5.39,5.39,0,0,1-.06.8,8.74,8.74,0,0,1-.34,1.66h0a17.83,17.83,0,0,1-1.17,3c-.22.45-.43.85-.64,1.24s-.4.74-.58,1.09a11.46,11.46,0,0,1-2.08,3h0l-.33-.31h0a12.09,12.09,0,0,0,2.32-3.42c.21-.37.42-.81.64-1.26s.43-.92.63-1.44a11.88,11.88,0,0,0,.87-3.52,5.62,5.62,0,0,0,0-.82c0-.11.1-.19.26-.23h.1C164.94,28.47,165.1,28.57,165.09,28.7Z"/><path class="cls-5" d="M164.46,15.17v.13c0,.18-.12.32-.25.31a7.91,7.91,0,0,1-.85-.06l-.42,0a13.94,13.94,0,0,0-1.93.35l-1.06.32c-.36.11-.7.24-1,.36s-.65.26-.95.39l-.91.4-.42.2-.42.19c-.28.13-.51.28-.79.4a9.52,9.52,0,0,0-2.36,1.57h0a12.14,12.14,0,0,0-2.32,3.43c-.21.37-.42.8-.64,1.26l-.29.62c-.09.19-.17.4-.26.61a1.8,1.8,0,0,1-.08.21,11.88,11.88,0,0,0-.87,3.52,5.55,5.55,0,0,1,.06.82c0,.12-.16.22-.36.23h-.09c-.2,0-.36-.11-.35-.23a5.29,5.29,0,0,1,.06-.8,11,11,0,0,0-.41-2.21c-.1-.34-.22-.67-.34-1s-.26-.66-.39-1-.27-.6-.41-.88-.28-.59-.42-.86l-.22-.4-.2-.4c-.14-.25-.29-.47-.42-.73a9,9,0,0,0-1.67-2.22h0a13.22,13.22,0,0,0-3.64-2.19c-.4-.19-.86-.39-1.34-.59s-1-.41-1.53-.6a14.22,14.22,0,0,0-3.75-.82l-.87.06c-.13,0-.24-.15-.25-.34V15.2c0-.19.12-.34.25-.34.29,0,.57,0,.85.06a12.53,12.53,0,0,0,2.35-.39c.36-.09.71-.2,1.06-.32s.7-.24,1-.36.65-.26.95-.39.62-.26.91-.4l.42-.2.42-.19c.28-.13.51-.27.79-.4a9.52,9.52,0,0,0,2.36-1.57h0a12.14,12.14,0,0,0,2.32-3.43c.21-.37.42-.8.64-1.26s.43-.92.63-1.44a11.88,11.88,0,0,0,.87-3.52c0-.27,0-.54-.06-.82,0-.12.16-.22.36-.23h.09c.2,0,.36.11.35.23a5.29,5.29,0,0,1-.06.8A11,11,0,0,0,149,3.24c.11.35.22.67.34,1s.14.37.22.55.11.28.17.42.05.13.08.19c.11.24.22.48.33.7s.28.58.42.86l.22.39.2.4c.14.26.29.48.42.74a9,9,0,0,0,1.67,2.21h0a13.37,13.37,0,0,0,3.64,2.19c.4.19.86.39,1.34.59s1,.41,1.54.6a13.06,13.06,0,0,0,3.31.77,3.15,3.15,0,0,0,.43.05,8.46,8.46,0,0,1,.87-.05C164.34,14.85,164.44,15,164.46,15.17Z"/><path class="cls-3" d="M134.65,15.24v0c0,.19.12.34.25.34l.87-.06a11.47,11.47,0,0,0,1.75-.32,17.09,17.09,0,0,0,1.88-.59l.86-.34c.27-.12.57-.23.83-.35l.78-.36.75-.35c.46-.24.95-.45,1.36-.68A9.81,9.81,0,0,0,146.36,11h0l-.33-.31a9.52,9.52,0,0,1-2.36,1.57c-.28.12-.51.27-.79.39l-.42.2-.42.2-.91.4-.95.39c-.33.12-.68.25-1,.36l-1.06.32a12.52,12.52,0,0,1-2.35.38,6.18,6.18,0,0,1-.86,0A.28.28,0,0,0,134.65,15.24Z"/><path class="cls-3" d="M134.65,15.2a0,0,0,0,0,0,0c0,.17.12.3.24.29q.44,0,.87,0a14.22,14.22,0,0,1,3.75.82c.55.19,1.07.39,1.53.6s1,.4,1.34.59A13.28,13.28,0,0,1,146,19.76h0l.33-.31h0a12.09,12.09,0,0,0-3.18-1.95c-.37-.18-.73-.37-1.16-.56s-.83-.39-1.32-.59a20,20,0,0,0-3.18-1.11,12.08,12.08,0,0,0-1.78-.32,7.92,7.92,0,0,0-.85-.05C134.76,14.86,134.66,15,134.65,15.2Z"/><path class="cls-3" d="M151.26,30.23c0,.12-.16.22-.36.23h0c-.18,0-.32-.11-.32-.23a5.27,5.27,0,0,0,0-.79h0a10.38,10.38,0,0,0-.4-2.2c-.11-.35-.23-.67-.35-1l-.21-.54c-.05-.15-.11-.29-.17-.43-.13-.31-.27-.61-.41-.89s-.28-.58-.43-.86l-.21-.39c-.07-.13-.13-.27-.2-.4s-.29-.48-.42-.74A9.31,9.31,0,0,0,146,19.76l.32-.31h0A9.59,9.59,0,0,1,148,21.7c.24.38.47.84.72,1.28l.37.7c.13.23.26.48.38.73s.21.45.32.67l.06.12c.12.25.24.52.36.8a15.29,15.29,0,0,1,.62,1.76h0a9.21,9.21,0,0,1,.35,1.64h0C151.23,29.69,151.25,30,151.26,30.23Z"/><path class="cls-3" d="M155.67,19.77h0a12.12,12.12,0,0,0-2.33,3.42c-.21.37-.42.81-.63,1.26s-.43.92-.63,1.44a11.52,11.52,0,0,0-.87,3.51h0a5.62,5.62,0,0,0,0,.82c0,.11-.12.19-.27.22h-.09c-.2,0-.36-.11-.36-.23s0-.54.06-.8h0a9.22,9.22,0,0,1,.34-1.66h0a17.44,17.44,0,0,1,1.18-3c.21-.46.43-.85.63-1.24s.4-.75.59-1.09a10.92,10.92,0,0,1,2.08-3h0Z"/><path class="cls-3" d="M167.05,15.18s0,0,0,0h0a.28.28,0,0,1-.24.29c-.28,0-.57,0-.85,0h0a11.27,11.27,0,0,0-2.31.39c-.37.09-.71.2-1.07.32s-.7.24-1,.36-.64.25-.94.39-.62.26-.91.4l-.42.2-.43.19c-.27.13-.51.27-.78.39a9.9,9.9,0,0,0-2.36,1.57l-.33-.31a9.94,9.94,0,0,1,2.39-1.56c.4-.23.9-.44,1.36-.67.23-.12.5-.24.75-.35l.77-.36.84-.35c.27-.12.55-.23.85-.34l.64-.23c.4-.14.81-.25,1.22-.36h0l.28-.06a10.52,10.52,0,0,1,1.47-.26h0a6.22,6.22,0,0,1,.86-.06C166.94,14.84,167,15,167.05,15.18Z"/><path class="cls-3" d="M167.05,15.22h0a0,0,0,0,1,0,0c0,.19-.11.34-.24.33a7.62,7.62,0,0,1-.85,0h0a10.36,10.36,0,0,1-1.46-.25l-.28-.06h0c-.42-.1-.84-.23-1.25-.37a18.33,18.33,0,0,1-1.91-.73c-.49-.2-.91-.4-1.32-.59s-.79-.38-1.16-.56a12.09,12.09,0,0,1-3.18-2h0l.33-.31h0a12.62,12.62,0,0,0,3.64,2.19c.4.2.86.4,1.34.6s1,.41,1.53.6a14.13,14.13,0,0,0,3.74.81h0a6.33,6.33,0,0,0,.87,0C166.93,14.94,167,15.06,167.05,15.22Z"/><path class="cls-3" d="M155.67,10.71l-.33.31h0a9.22,9.22,0,0,1-1.64-2.24c-.25-.38-.47-.85-.73-1.28-.12-.22-.24-.48-.37-.71l-.38-.72c-.13-.25-.24-.54-.37-.79a8.4,8.4,0,0,1-.36-.8,13.13,13.13,0,0,1-.63-1.76h0a9.19,9.19,0,0,1-.34-1.64,5.76,5.76,0,0,1-.06-.82c0-.12.16-.22.35-.23h0c.19,0,.32.11.32.23a5.4,5.4,0,0,0,0,.8,10.4,10.4,0,0,0,.41,2.2c.1.35.22.67.34,1s.26.66.39,1,.27.61.41.89.28.59.42.86l.21.39.21.4c.13.26.29.48.42.74A9,9,0,0,0,155.67,10.71Z"/><path class="cls-3" d="M151.25.24c0,.27,0,.53-.06.8a8.74,8.74,0,0,1-.34,1.66h0a16.61,16.61,0,0,1-1,2.69c0,.1-.09.2-.14.3-.21.45-.42.85-.63,1.24s-.4.74-.59,1.09a11,11,0,0,1-2.08,3l-.33-.31h0a11.92,11.92,0,0,0,2.33-3.42c.21-.37.42-.81.63-1.26s.38-.79.56-1.23a1.8,1.8,0,0,1,.08-.21,11.88,11.88,0,0,0,.87-3.52c0-.27,0-.55,0-.82,0-.11.11-.19.26-.23h.09C151.1,0,151.26.11,151.25.24Z"/></g></g></svg>