<svg xmlns="http://www.w3.org/2000/svg" width="123.335" height="146.84" viewBox="0 0 123.335 146.84">
  <g id="Group_178" data-name="Group 178" transform="translate(-880.99 -1805.16)">
    <g id="Group_79" data-name="Group 79" transform="translate(880.99 1832.426)">
      <path id="Path_48" data-name="Path 48" d="M1439.193,567.676c0,38.084-32.857,68.966-73.376,68.966a76.069,76.069,0,0,1-46.267-15.434c2.008.131,4.047.189,6.1.189,52.044,0,94.231-39.652,94.231-88.566a82.967,82.967,0,0,0-.973-12.763A66.625,66.625,0,0,1,1439.193,567.676Z" transform="translate(-1319.55 -517.068)" fill="#bcbcbc"/>
      <path id="Path_49" data-name="Path 49" d="M1442.193,564.676c0,38.084-32.857,68.966-73.376,68.966a76.069,76.069,0,0,1-46.267-15.434c2.008.131,4.047.189,6.1.189,52.044,0,94.231-39.652,94.231-88.566a82.967,82.967,0,0,0-.973-12.763A66.625,66.625,0,0,1,1442.193,564.676Z" transform="translate(-1319.358 -517.068)" fill="none" stroke="#707070" stroke-width="1"/>
    </g>
    <g id="Group_81" data-name="Group 81" transform="translate(944.243 1805.487)">
      <text id="Z" transform="matrix(0.923, -0.386, 0.386, 0.923, 8.098, 23.618)" fill="#bcbcbc" font-size="19" font-family="SegoeUI, Segoe UI"><tspan x="0" y="0">Z</tspan></text>
      <text id="Z-2" data-name="Z" transform="matrix(0.923, -0.386, 0.386, 0.923, 14.872, 32.171)" fill="#bcbcbc" font-size="10" font-family="SegoeUI, Segoe UI"><tspan x="0" y="0">Z</tspan></text>
      <text id="Z-3" data-name="Z" transform="matrix(0.923, -0.386, 0.386, 0.923, 8.098, 23.618)" stroke="#707070" stroke-width="0.25" font-size="19" font-family="SegoeUI, Segoe UI" fill="none"><tspan x="0" y="0">Z</tspan></text>
      <text id="Z-4" data-name="Z" transform="matrix(0.923, -0.386, 0.386, 0.923, 14.872, 32.171)" stroke="#707070" stroke-width="0.25" font-size="10" font-family="SegoeUI, Segoe UI" fill="none"><tspan x="0" y="0">Z</tspan></text>
    </g>
  </g>
</svg>
