<svg xmlns="http://www.w3.org/2000/svg" xmlns:xlink="http://www.w3.org/1999/xlink" width="996" height="152" viewBox="0 0 996 152">
  <defs>
    <clipPath id="clip-path">
      <rect id="Rectangle_9" data-name="Rectangle 9" width="996" height="152" rx="20" transform="translate(-0.128)" fill="#fff" stroke="#292929" stroke-width="1"/>
    </clipPath>
  </defs>
  <g id="Mask_Group_1" data-name="Mask Group 1" transform="translate(0.128)" clip-path="url(#clip-path)">
    <g id="Group_80" data-name="Group 80" transform="translate(5.32 55)">
      <g id="Group_51" data-name="Group 51" transform="translate(0 18.922)">
        <path id="Path_3" data-name="Path 3" d="M1033.529,558.539a.142.142,0,0,1-.018.068.123.123,0,0,1,0,.06.489.489,0,0,1-.518.445c-.564-.068-1.127-.153-1.655-.256a22.426,22.426,0,0,0-7.319.778,19.868,19.868,0,0,0-5.564,2.443,15.767,15.767,0,0,0-6.347,7.358l-.009.016a14.662,14.662,0,0,0-.873,3.188,12.844,12.844,0,0,0-.127,1.692,12.421,12.421,0,0,0,.036,1.743,17.254,17.254,0,0,0,.718,3.572,15.108,15.108,0,0,0,.673,1.76,15.909,15.909,0,0,0,.855,1.709,20.7,20.7,0,0,0,5.673,6.3c.464.248.928.521,1.4.82a.437.437,0,0,1,.064.65c-.009.008-.027.034-.045.051a.18.18,0,0,1-.036.052.512.512,0,0,1-.673.162c-.473-.308-.918-.632-1.346-.957a22.172,22.172,0,0,0-6.855-2.521,20.136,20.136,0,0,0-6.137-.265,16.956,16.956,0,0,0-9.264,3.734l-.018.017a15.77,15.77,0,0,0-2.355,2.444,16.719,16.719,0,0,0-1.773,3.008,17.363,17.363,0,0,0-1.128,3.478,18.118,18.118,0,0,0-.354,3.734,19.345,19.345,0,0,0,1.918,8.049c.292.427.573.872.837,1.342a.439.439,0,0,1-.255.6.241.241,0,0,1-.072.026.2.2,0,0,1-.055.034.515.515,0,0,1-.682-.153c-.264-.479-.5-.957-.71-1.427a20.8,20.8,0,0,0-4.837-5.221,19.524,19.524,0,0,0-5.3-2.905,17.461,17.461,0,0,0-10.047-.744l-.027.009a16.289,16.289,0,0,0-3.282,1.128,12.8,12.8,0,0,0-1.564.863,13.648,13.648,0,0,0-1.5,1.017,21.807,21.807,0,0,0-2.727,2.581,18.9,18.9,0,0,0-4.446,11.117c.045.5.064,1.017.072,1.547a.488.488,0,0,1-.527.435.218.218,0,0,1-.072-.008.175.175,0,0,1-.064.008.5.5,0,0,1-.528-.445c.01-.538.028-1.059.073-1.572a18.821,18.821,0,0,0-4.955-11.648,16.907,16.907,0,0,0-8.537-5.024h-.018a14.744,14.744,0,0,0-3.473-.419,16.313,16.313,0,0,0-3.646.325,18.334,18.334,0,0,0-3.682,1.1,18.808,18.808,0,0,0-3.472,1.846A20.564,20.564,0,0,0,923,612.314c-.21.462-.445.932-.7,1.4a.514.514,0,0,1-.683.153.256.256,0,0,1-.063-.043.127.127,0,0,1-.064-.017.452.452,0,0,1-.255-.606c.272-.47.554-.932.846-1.367a19.543,19.543,0,0,0,1.854-6.725,18.122,18.122,0,0,0-.455-5.751,15.7,15.7,0,0,0-5.073-8.186l-.018-.017a14.517,14.517,0,0,0-2.873-1.888,15.8,15.8,0,0,0-3.392-1.307,18.631,18.631,0,0,0-3.809-.632,19.641,19.641,0,0,0-3.991.12,22.185,22.185,0,0,0-8.246,2.751c-.418.325-.854.632-1.309.94a.514.514,0,0,1-.682-.162c-.009-.016-.027-.043-.037-.06l-.045-.043a.445.445,0,0,1,.073-.649c.472-.308.954-.582,1.427-.847a21.047,21.047,0,0,0,4.955-5.153,17.191,17.191,0,0,0,1.464-2.657,16.229,16.229,0,0,0,.963-2.641,14.924,14.924,0,0,0-.445-9.45l-.01-.026a13.435,13.435,0,0,0-1.609-2.922,14.3,14.3,0,0,0-2.355-2.632,16.933,16.933,0,0,0-3.055-2.222,19.226,19.226,0,0,0-3.583-1.649,22.888,22.888,0,0,0-8.673-1.18c-.527.1-1.064.188-1.618.257a.484.484,0,0,1-.518-.445.084.084,0,0,1,0-.068v-.017c-.018-.009-.018-.034-.018-.043a.457.457,0,0,1,.382-.539c.573-.06,1.136-.1,1.682-.119A22.851,22.851,0,0,0,890,555.481a19.635,19.635,0,0,0,4.783-3.615,15.34,15.34,0,0,0,4.282-8.588l.01-.025a10.815,10.815,0,0,0,.1-1.632,14.51,14.51,0,0,0-.072-1.658,16.357,16.357,0,0,0-.791-3.358,17.8,17.8,0,0,0-1.619-3.3,19.814,19.814,0,0,0-2.363-3.017,21.666,21.666,0,0,0-7.119-4.836c-.518-.137-1.037-.3-1.564-.478a.449.449,0,0,1-.237-.615c.01-.017.018-.052.037-.06a.111.111,0,0,1,.018-.06.506.506,0,0,1,.618-.317c.527.2,1.046.41,1.546.632a22.734,22.734,0,0,0,7.3.9,20.037,20.037,0,0,0,6.019-1.12,16.388,16.388,0,0,0,8.046-5.708l.018-.016a14.526,14.526,0,0,0,1.664-2.9,13.324,13.324,0,0,0,.564-1.615,11.358,11.358,0,0,0,.4-1.7,17.986,17.986,0,0,0,.218-3.632,18.747,18.747,0,0,0-.609-3.708,19.7,19.7,0,0,0-3.91-7.383c-.391-.35-.772-.718-1.145-1.119a.427.427,0,0,1,.091-.642c.018-.008.045-.034.064-.043s.027-.025.045-.043a.5.5,0,0,1,.691,0c.381.4.737.812,1.064,1.222a21.451,21.451,0,0,0,6.027,3.991,20.484,20.484,0,0,0,5.883,1.632A17.5,17.5,0,0,0,930,501.116l.017-.009a15.562,15.562,0,0,0,5.392-4.366,18.06,18.06,0,0,0,1.982-3.12,18.443,18.443,0,0,0,1.492-11.8c-.173-.479-.327-.966-.464-1.479a.454.454,0,0,1,.409-.529.1.1,0,0,1,.072-.009.151.151,0,0,1,.055-.025.521.521,0,0,1,.627.308c.128.521.237,1.043.327,1.546a19.681,19.681,0,0,0,3.355,6.17,18.767,18.767,0,0,0,4.4,4.016,16.929,16.929,0,0,0,9.574,2.974h.027a14.267,14.267,0,0,0,3.491-.359,17.175,17.175,0,0,0,3.455-1.136,18.878,18.878,0,0,0,6.191-4.487,19.631,19.631,0,0,0,4.237-7.2c.082-.5.191-1.008.318-1.521a.505.505,0,0,1,.627-.3.18.18,0,0,1,.063.017c.028,0,.046.009.073.009a.462.462,0,0,1,.4.529c-.136.522-.3,1.026-.473,1.522a19.241,19.241,0,0,0-.072,6.947,17.112,17.112,0,0,0,.773,2.905,17.377,17.377,0,0,0,1.136,2.572,16.348,16.348,0,0,0,7,6.8l.028.017a15.265,15.265,0,0,0,3.264,1.188,16.406,16.406,0,0,0,3.618.5,18.448,18.448,0,0,0,3.864-.24,18.956,18.956,0,0,0,3.846-1.008,21.529,21.529,0,0,0,7.319-4.52c.318-.4.664-.8,1.027-1.2a.512.512,0,0,1,.7.009.144.144,0,0,1,.055.051.17.17,0,0,1,.054.034.432.432,0,0,1,.092.641c-.382.4-.773.786-1.173,1.137a20.29,20.29,0,0,0-3.5,6.118,16.923,16.923,0,0,0-.755,2.914,17.635,17.635,0,0,0-.264,2.777,15.164,15.164,0,0,0,2.855,9.084l.01.017a13.863,13.863,0,0,0,2.309,2.478,14.971,14.971,0,0,0,2.955,2.025,18.434,18.434,0,0,0,3.536,1.469,19.557,19.557,0,0,0,3.91.787,22.891,22.891,0,0,0,8.71-.82c.49-.214.99-.419,1.518-.607a.491.491,0,0,1,.619.308c0,.017.019.043.019.068l.027.052a.448.448,0,0,1-.228.615c-.536.188-1.073.35-1.6.5a21.783,21.783,0,0,0-6.128,3.888,17.484,17.484,0,0,0-2.109,2.247,18.6,18.6,0,0,0-1.609,2.342,15.513,15.513,0,0,0-1.782,4.708,13.459,13.459,0,0,0-.209,4.571v.017a14.329,14.329,0,0,0,2.437,6.3,18.258,18.258,0,0,0,5.464,5.255,20.881,20.881,0,0,0,3.755,1.871,23.046,23.046,0,0,0,4.382,1.2c.537.017,1.082.06,1.645.12A.458.458,0,0,1,1033.529,558.539Z" transform="translate(-878.214 -473.548)" fill="#ffecd4"/>
        <g id="Group_50" data-name="Group 50" transform="translate(0 0)">
          <g id="Group_13" data-name="Group 13" transform="translate(80.983 0.005)">
            <g id="Group_11" data-name="Group 11" transform="translate(0 0.031)">
              <path id="Path_4" data-name="Path 4" d="M982.023,473.531c-.145.553-.319,1.089-.5,1.615a22.7,22.7,0,0,1-1.41,3.2,21.974,21.974,0,0,1-4.547,5.889,21.459,21.459,0,0,1-5.85,3.874,18.347,18.347,0,0,1-7.685,1.67H962v-.907a15.142,15.142,0,0,0,3.707-.381,18.243,18.243,0,0,0,3.668-1.207,20.048,20.048,0,0,0,6.574-4.764,20.859,20.859,0,0,0,4.5-7.649,16.175,16.175,0,0,0,.483-1.588.515.515,0,0,1,.589-.327c.029,0,.048.009.077.009A.492.492,0,0,1,982.023,473.531Z" transform="translate(-962 -472.954)" fill="#707070"/>
            </g>
            <g id="Group_12" data-name="Group 12" transform="translate(18.106)">
              <path id="Path_5" data-name="Path 5" d="M991.582,495.577l-.454.8-.019-.009a18.425,18.425,0,0,1-8.467-8.892,20.233,20.233,0,0,1-1.033-2.7,21.336,21.336,0,0,1-.85-6.424,20.167,20.167,0,0,1,.338-3.475c.087-.535.2-1.071.338-1.615a.536.536,0,0,1,.666-.318.188.188,0,0,1,.068.018.46.46,0,0,1,.357.535c-.145.553-.27,1.107-.357,1.651a20.439,20.439,0,0,0-.077,7.377,18.234,18.234,0,0,0,.821,3.085,18.485,18.485,0,0,0,1.207,2.731,17.364,17.364,0,0,0,7.434,7.223Z" transform="translate(-980.755 -472.919)" fill="#707070"/>
            </g>
          </g>
          <g id="Group_16" data-name="Group 16" transform="translate(109.463 16.913)">
            <g id="Group_14" data-name="Group 14" transform="translate(0 0.092)">
              <path id="Path_6" data-name="Path 6" d="M1017.267,492.485c-.405.426-.821.835-1.245,1.207a23.177,23.177,0,0,1-2.829,2.214,23.508,23.508,0,0,1-14.037,4.083,18.317,18.317,0,0,1-4.006-.563,16.78,16.78,0,0,1-3.63-1.307l-.019-.009.454-.8a16.26,16.26,0,0,0,3.466,1.261,17.448,17.448,0,0,0,3.842.535,19.569,19.569,0,0,0,4.1-.254,20.124,20.124,0,0,0,4.084-1.071,22.852,22.852,0,0,0,7.771-4.8c.415-.372.821-.771,1.207-1.189a.526.526,0,0,1,.685-.027.2.2,0,0,1,.058.036A.458.458,0,0,1,1017.267,492.485Z" transform="translate(-991.5 -491.656)" fill="#707070"/>
            </g>
            <g id="Group_15" data-name="Group 15" transform="translate(18.769)">
              <path id="Path_7" data-name="Path 7" d="M1017.833,492.385c-.405.426-.792.862-1.139,1.3a21.572,21.572,0,0,0-3.717,6.5,17.973,17.973,0,0,0-.8,3.094,18.6,18.6,0,0,0-.28,2.949,16.1,16.1,0,0,0,3.031,9.645l.01.018-.792.517-.019-.018a16.779,16.779,0,0,1-3.147-8.883,18.023,18.023,0,0,1,.029-2.695,19,19,0,0,1,.425-2.84,21.727,21.727,0,0,1,2.433-6.07,20.464,20.464,0,0,1,2.027-2.922c.338-.426.7-.853,1.091-1.279a.545.545,0,0,1,.743.009.161.161,0,0,1,.058.054A.445.445,0,0,1,1017.833,492.385Z" transform="translate(-1010.941 -491.554)" fill="#707070"/>
            </g>
          </g>
          <g id="Group_19" data-name="Group 19" transform="translate(131.435 41.245)">
            <g id="Group_17" data-name="Group 17">
              <path id="Path_8" data-name="Path 8" d="M1039.872,525.139c-.57.2-1.139.372-1.7.526a24.947,24.947,0,0,1-3.611.717,23.826,23.826,0,0,1-14.452-2.5,18.511,18.511,0,0,1-3.273-2.241,15.318,15.318,0,0,1-2.568-2.74l-.01-.018.792-.517A14.717,14.717,0,0,0,1017.5,521a15.882,15.882,0,0,0,3.138,2.15,19.615,19.615,0,0,0,3.755,1.561,20.772,20.772,0,0,0,4.151.835,24.294,24.294,0,0,0,9.249-.871c.56-.145,1.11-.318,1.66-.517a.51.51,0,0,1,.628.272l.029.054A.476.476,0,0,1,1039.872,525.139Z" transform="translate(-1014.26 -518.37)" fill="#707070"/>
            </g>
            <g id="Group_18" data-name="Group 18" transform="translate(10.28 5.63)">
              <path id="Path_9" data-name="Path 9" d="M1040.183,525.587a17.328,17.328,0,0,0-1.641.653,23.122,23.122,0,0,0-6.507,4.129,18.516,18.516,0,0,0-2.24,2.386,19.8,19.8,0,0,0-1.709,2.486,16.5,16.5,0,0,0-1.892,5,14.284,14.284,0,0,0-.222,4.854v.018l-.956.109V545.2a16.632,16.632,0,0,1,1.622-9.237,17.6,17.6,0,0,1,1.371-2.368,19.139,19.139,0,0,1,1.776-2.323,24.422,24.422,0,0,1,8.38-6.025c.521-.227,1.052-.445,1.612-.644a.521.521,0,0,1,.656.327c0,.018.019.045.019.073A.466.466,0,0,1,1040.183,525.587Z" transform="translate(-1024.908 -524.575)" fill="#707070"/>
            </g>
          </g>
          <g id="Group_22" data-name="Group 22" transform="translate(138.309 67.414)">
            <g id="Group_20" data-name="Group 20" transform="translate(3.514)">
              <path id="Path_10" data-name="Path 10" d="M1045.139,563.515a.14.14,0,0,1,0,.064.52.52,0,0,1-.55.472c-.6-.073-1.2-.163-1.757-.272a26.13,26.13,0,0,1-3.553-.935,24.607,24.607,0,0,1-3.62-1.543,23.824,23.824,0,0,1-3.157-1.987,20.378,20.378,0,0,1-4.76-4.99,15.3,15.3,0,0,1-1.805-3.43,15.519,15.519,0,0,1-.917-3.548v-.027l.956-.109a15.2,15.2,0,0,0,2.587,6.687,19.379,19.379,0,0,0,5.8,5.58,22.183,22.183,0,0,0,3.987,1.987,24.483,24.483,0,0,0,4.653,1.279c.56.118,1.139.2,1.728.263A.46.46,0,0,1,1045.139,563.515Z" transform="translate(-1025.02 -547.21)" fill="#707070"/>
            </g>
            <g id="Group_21" data-name="Group 21" transform="translate(0 15.503)">
              <path id="Path_11" data-name="Path 11" d="M1045.032,565.025a.165.165,0,0,1-.019.073.5.5,0,0,1-.531.4,17.132,17.132,0,0,0-1.776-.136,23.857,23.857,0,0,0-7.771.826,21.139,21.139,0,0,0-5.908,2.6,16.74,16.74,0,0,0-6.739,7.812l-.01.018-.9-.318.01-.027a17.43,17.43,0,0,1,5.985-7.468,21.808,21.808,0,0,1,5.117-2.786,24.425,24.425,0,0,1,6.661-1.588,23.92,23.92,0,0,1,3.727-.1c.569.018,1.149.064,1.747.127A.487.487,0,0,1,1045.032,565.025Z" transform="translate(-1021.38 -564.296)" fill="#707070"/>
            </g>
          </g>
          <g id="Group_25" data-name="Group 25" transform="translate(121.617 94.916)">
            <g id="Group_23" data-name="Group 23" transform="translate(15.564)">
              <path id="Path_12" data-name="Path 12" d="M1031.129,600.649a.191.191,0,0,1-.039.054.542.542,0,0,1-.714.172c-.5-.327-.975-.671-1.429-1.016a23.281,23.281,0,0,1-2.664-2.377,20.559,20.559,0,0,1-6-12.6,17.219,17.219,0,0,1,.1-3.811,15.724,15.724,0,0,1,.956-3.53l.01-.018.9.318a15.612,15.612,0,0,0-.927,3.384,13.673,13.673,0,0,0-.135,1.8,13.222,13.222,0,0,0,.039,1.851,18.257,18.257,0,0,0,.763,3.793,15.8,15.8,0,0,0,.714,1.869,16.758,16.758,0,0,0,.907,1.815,21.974,21.974,0,0,0,6.024,6.687c.434.336.907.671,1.4.98A.453.453,0,0,1,1031.129,600.649Z" transform="translate(-1020.212 -577.52)" fill="#707070"/>
            </g>
            <g id="Group_24" data-name="Group 24" transform="translate(0 18.339)">
              <path id="Path_13" data-name="Path 13" d="M1030.619,602.467c-.01.009-.029.036-.048.054a.539.539,0,0,1-.676.109q-.738-.49-1.506-.9a23.547,23.547,0,0,0-7.279-2.677,21.4,21.4,0,0,0-6.516-.281,18.006,18.006,0,0,0-9.837,3.965l-.019.018-.647-.681.019-.018a18.928,18.928,0,0,1,9.017-4,22.474,22.474,0,0,1,5.908-.227,24.475,24.475,0,0,1,6.69,1.524,22.91,22.91,0,0,1,3.34,1.552c.492.263.985.554,1.487.871A.464.464,0,0,1,1030.619,602.467Z" transform="translate(-1004.09 -597.731)" fill="#707070"/>
            </g>
          </g>
          <g id="Group_28" data-name="Group 28" transform="translate(95.667 117.6)">
            <g id="Group_26" data-name="Group 26" transform="translate(19.668)">
              <path id="Path_14" data-name="Path 14" d="M1004.512,603.2a16.824,16.824,0,0,0-2.5,2.6,17.768,17.768,0,0,0-1.883,3.194,18.453,18.453,0,0,0-1.2,3.693,19.269,19.269,0,0,0-.376,3.965,20.54,20.54,0,0,0,2.037,8.547,15.463,15.463,0,0,0,.763,1.479.454.454,0,0,1-.222.608.2.2,0,0,1-.058.036.547.547,0,0,1-.724-.163c-.28-.508-.531-1.016-.753-1.515a21.921,21.921,0,0,1-1.96-10.516,21.7,21.7,0,0,1,.541-3.366,20.005,20.005,0,0,1,1.11-3.167,18.2,18.2,0,0,1,1.969-3.339,16.345,16.345,0,0,1,1.226-1.425,12.662,12.662,0,0,1,1.361-1.289l.019-.018Z" transform="translate(-997.583 -602.52)" fill="#707070"/>
            </g>
            <g id="Group_27" data-name="Group 27" transform="translate(0 12.35)">
              <path id="Path_15" data-name="Path 15" d="M1000.505,628.516a.265.265,0,0,1-.077.027.523.523,0,0,1-.647-.181c-.28-.508-.579-1-.888-1.461a22.087,22.087,0,0,0-5.136-5.544,20.737,20.737,0,0,0-5.628-3.085,18.542,18.542,0,0,0-10.668-.789l-.029.009-.222-.889h.019a19.461,19.461,0,0,1,9.944.39,22.075,22.075,0,0,1,5.348,2.377,23,23,0,0,1,5.174,4.265,20.861,20.861,0,0,1,2.192,2.822c.309.454.608.926.888,1.425A.466.466,0,0,1,1000.505,628.516Z" transform="translate(-977.21 -616.131)" fill="#707070"/>
            </g>
          </g>
          <g id="Group_31" data-name="Group 31" transform="translate(66.078 130.421)">
            <g id="Group_29" data-name="Group 29" transform="translate(14.269)">
              <path id="Path_16" data-name="Path 16" d="M976.883,617.539a17.311,17.311,0,0,0-3.485,1.2,13.514,13.514,0,0,0-1.661.916,14.387,14.387,0,0,0-1.593,1.08,23.152,23.152,0,0,0-2.9,2.74,20.063,20.063,0,0,0-4.721,11.8,13.208,13.208,0,0,0-.068,1.642.5.5,0,0,1-.492.454.174.174,0,0,1-.068.009.526.526,0,0,1-.56-.472c.01-.572.029-1.125.077-1.669a22.2,22.2,0,0,1,3.476-10.172,22.8,22.8,0,0,1,2.162-2.749,23.043,23.043,0,0,1,2.549-2.314,14.876,14.876,0,0,1,1.67-1.134c.569-.336,1.139-.681,1.728-.953a18.606,18.606,0,0,1,3.63-1.261l.029-.009Z" transform="translate(-961.34 -616.65)" fill="#707070"/>
            </g>
            <g id="Group_30" data-name="Group 30">
              <path id="Path_17" data-name="Path 17" d="M962.093,636.92a.52.52,0,0,1-.56.463.225.225,0,0,1-.077-.009.5.5,0,0,1-.483-.454,15.961,15.961,0,0,0-.068-1.679,19.982,19.982,0,0,0-5.261-12.367,17.953,17.953,0,0,0-9.065-5.335h-.019l.222-.889.029.009a18.761,18.761,0,0,1,8.621,4.682,21,21,0,0,1,6.034,10.489,19.812,19.812,0,0,1,.55,3.448C962.064,635.814,962.084,636.358,962.093,636.92Z" transform="translate(-946.56 -616.65)" fill="#707070"/>
            </g>
          </g>
          <g id="Group_34" data-name="Group 34" transform="translate(39.703 117.6)">
            <g id="Group_32" data-name="Group 32" transform="translate(2.973 12.355)">
              <path id="Path_18" data-name="Path 18" d="M945.943,616.6l-.222.889a15.633,15.633,0,0,0-3.688-.445,17.285,17.285,0,0,0-3.871.345,19.466,19.466,0,0,0-3.91,1.171,19.918,19.918,0,0,0-3.688,1.96,21.839,21.839,0,0,0-6.323,6.406,15.528,15.528,0,0,0-.878,1.425.512.512,0,0,1-.657.182.146.146,0,0,1-.068-.018.48.48,0,0,1-.27-.644c.29-.5.589-.989.9-1.452a23.711,23.711,0,0,1,2.191-2.786,22.918,22.918,0,0,1,12.589-7.123,18.715,18.715,0,0,1,4.035-.363,16.893,16.893,0,0,1,3.842.454Z" transform="translate(-922.319 -616.136)" fill="#707070"/>
            </g>
            <g id="Group_33" data-name="Group 33">
              <path id="Path_19" data-name="Path 19" d="M926.172,615.94a21.489,21.489,0,0,1-.821,6.433,20.728,20.728,0,0,1-1.216,3.294c-.222.49-.473.989-.743,1.488a.544.544,0,0,1-.724.163.3.3,0,0,1-.068-.045.448.448,0,0,1-.212-.6,16.033,16.033,0,0,0,.772-1.515,20.747,20.747,0,0,0,1.969-7.141,19.238,19.238,0,0,0-.483-6.107,16.67,16.67,0,0,0-5.387-8.693l-.019-.018.647-.681.019.018a17.448,17.448,0,0,1,5.31,7.921,17.965,17.965,0,0,1,.647,2.631A18.862,18.862,0,0,1,926.172,615.94Z" transform="translate(-919.24 -602.52)" fill="#707070"/>
            </g>
          </g>
          <g id="Group_37" data-name="Group 37" transform="translate(13.698 94.916)">
            <g id="Group_35" data-name="Group 35" transform="translate(0 18.353)">
              <path id="Path_20" data-name="Path 20" d="M918.955,602.078l-.647.681a15.48,15.48,0,0,0-3.051-2.005,16.792,16.792,0,0,0-3.6-1.388,19.764,19.764,0,0,0-4.045-.671,20.9,20.9,0,0,0-4.238.127,23.561,23.561,0,0,0-8.756,2.922c-.5.263-.994.572-1.477.889a.546.546,0,0,1-.676-.127l-.048-.045a.473.473,0,0,1,.077-.69c.5-.327,1.014-.617,1.516-.9a25.567,25.567,0,0,1,3.311-1.515,23.9,23.9,0,0,1,14.674-.826,18.394,18.394,0,0,1,3.746,1.452,16.578,16.578,0,0,1,3.2,2.078Z" transform="translate(-892.304 -597.746)" fill="#707070"/>
            </g>
            <g id="Group_36" data-name="Group 36" transform="translate(0.082)">
              <path id="Path_21" data-name="Path 21" d="M903.067,586.866a16.119,16.119,0,0,1-.714,2.6,20.171,20.171,0,0,1-1.13,2.668,22.858,22.858,0,0,1-3.9,5.344,20.936,20.936,0,0,1-2.7,2.386c-.444.345-.907.671-1.39,1a.547.547,0,0,1-.724-.172c-.01-.018-.029-.045-.039-.064a.444.444,0,0,1,.116-.626c.5-.318.975-.653,1.429-1.007a22.355,22.355,0,0,0,5.261-5.471,18.211,18.211,0,0,0,1.554-2.822,17.279,17.279,0,0,0,1.023-2.8,15.845,15.845,0,0,0-.473-10.035l-.01-.027.9-.318.01.018A16.4,16.4,0,0,1,903.067,586.866Z" transform="translate(-892.388 -577.52)" fill="#707070"/>
            </g>
          </g>
          <g id="Group_40" data-name="Group 40" transform="translate(0 67.414)">
            <g id="Group_38" data-name="Group 38" transform="translate(0 15.502)">
              <path id="Path_22" data-name="Path 22" d="M901.772,576.295l-.9.318a14.312,14.312,0,0,0-1.709-3.1,15.225,15.225,0,0,0-2.5-2.795,17.965,17.965,0,0,0-3.244-2.359,20.436,20.436,0,0,0-3.8-1.751,24.3,24.3,0,0,0-9.21-1.252c-.57.018-1.158.064-1.738.136a.489.489,0,0,1-.531-.408v-.018c-.019-.009-.019-.036-.019-.045a.485.485,0,0,1,.405-.572c.608-.064,1.207-.109,1.786-.127a26.01,26.01,0,0,1,3.688.109,23.239,23.239,0,0,1,13.371,5.7,16.93,16.93,0,0,1,2.607,2.913,14.7,14.7,0,0,1,1.786,3.23Z" transform="translate(-878.115 -564.295)" fill="#707070"/>
            </g>
            <g id="Group_39" data-name="Group 39" transform="translate(0.017)">
              <path id="Path_23" data-name="Path 23" d="M898.259,547.319v.027a17.034,17.034,0,0,1-3.91,8.62,21.884,21.884,0,0,1-4.257,3.856A24.6,24.6,0,0,1,884,562.844a23.808,23.808,0,0,1-3.591.926c-.56.109-1.129.2-1.718.272a.514.514,0,0,1-.55-.472.1.1,0,0,1,0-.073v-.018a.467.467,0,0,1,.406-.481c.608-.073,1.2-.154,1.767-.263a24.234,24.234,0,0,0,7.356-2.541,20.836,20.836,0,0,0,5.078-3.838,16.293,16.293,0,0,0,4.547-9.119l.01-.027Z" transform="translate(-878.133 -547.21)" fill="#707070"/>
            </g>
          </g>
          <g id="Group_43" data-name="Group 43" transform="translate(4.633 41.245)">
            <g id="Group_41" data-name="Group 41" transform="translate(0.055 5.618)">
              <path id="Path_24" data-name="Path 24" d="M898.532,543.388a11.391,11.391,0,0,1-.106,1.815v.018l-.956-.109a11.526,11.526,0,0,0,.106-1.733,15.433,15.433,0,0,0-.077-1.76,17.327,17.327,0,0,0-.84-3.566,18.891,18.891,0,0,0-1.718-3.5,21.064,21.064,0,0,0-2.51-3.2,23,23,0,0,0-7.559-5.136c-.512-.236-1.062-.445-1.612-.635a.454.454,0,0,1-.261-.59.125.125,0,0,1,.019-.064.538.538,0,0,1,.656-.336c.56.209,1.11.436,1.641.671a25.224,25.224,0,0,1,3.2,1.7,23.417,23.417,0,0,1,5.686,4.963,23.8,23.8,0,0,1,1.96,2.858,19.948,19.948,0,0,1,1.4,3.058,17.171,17.171,0,0,1,.888,3.72A11.706,11.706,0,0,1,898.532,543.388Z" transform="translate(-882.97 -524.561)" fill="#707070"/>
            </g>
            <g id="Group_42" data-name="Group 42">
              <path id="Path_25" data-name="Path 25" d="M908.812,518.887l-.01.018a18.135,18.135,0,0,1-7.733,5.907,22.494,22.494,0,0,1-5.677,1.552,24.885,24.885,0,0,1-6.883.018,23.046,23.046,0,0,1-3.64-.744c-.55-.145-1.1-.318-1.661-.508a.477.477,0,0,1-.251-.653c.01-.018.019-.054.039-.063a.513.513,0,0,1,.618-.263c.57.2,1.139.381,1.7.535a24.148,24.148,0,0,0,7.752.953,21.28,21.28,0,0,0,6.391-1.189A17.409,17.409,0,0,0,908,518.388l.019-.018Z" transform="translate(-882.913 -518.37)" fill="#707070"/>
            </g>
          </g>
          <g id="Group_46" data-name="Group 46" transform="translate(26.632 16.909)">
            <g id="Group_44" data-name="Group 44" transform="translate(0.111)">
              <path id="Path_26" data-name="Path 26" d="M912.79,506.168a20.2,20.2,0,0,1-.27,3.321,17.479,17.479,0,0,1-1.072,3.684,16.213,16.213,0,0,1-1.825,3.212l-.019.018-.792-.517a15.4,15.4,0,0,0,1.767-3.076,13.992,13.992,0,0,0,.6-1.715,12.1,12.1,0,0,0,.425-1.806,19.092,19.092,0,0,0,.232-3.856,19.837,19.837,0,0,0-.647-3.938,20.907,20.907,0,0,0-4.151-7.84,15.437,15.437,0,0,0-1.11-1.27.45.45,0,0,1,.058-.644c.01-.018.029-.027.048-.045a.532.532,0,0,1,.734,0c.405.426.782.862,1.129,1.3a22.615,22.615,0,0,1,1.989,2.9,21.465,21.465,0,0,1,2.587,6.878A21.143,21.143,0,0,1,912.79,506.168Z" transform="translate(-905.816 -491.549)" fill="#707070"/>
            </g>
            <g id="Group_45" data-name="Group 45" transform="translate(0 0.09)">
              <path id="Path_27" data-name="Path 27" d="M931.573,498.11l-.019.009a19.427,19.427,0,0,1-9.77,1.869,22.443,22.443,0,0,1-5.792-1.107,23.569,23.569,0,0,1-6.111-2.976,21.681,21.681,0,0,1-2.848-2.241c-.415-.372-.821-.762-1.216-1.189a.453.453,0,0,1,.1-.681c.019-.009.048-.036.068-.045a.536.536,0,0,1,.676.036A17.04,17.04,0,0,0,907.891,493a22.775,22.775,0,0,0,6.4,4.237,21.74,21.74,0,0,0,6.246,1.733,18.571,18.571,0,0,0,10.562-1.651l.019-.009Z" transform="translate(-905.701 -491.648)" fill="#707070"/>
            </g>
          </g>
          <g id="Group_49" data-name="Group 49" transform="translate(52.05)">
            <g id="Group_47" data-name="Group 47">
              <path id="Path_28" data-name="Path 28" d="M942.852,478.345a20.37,20.37,0,0,1-4.383,13.175,19.19,19.19,0,0,1-2.761,2.795,16.378,16.378,0,0,1-1.554,1.107,12.123,12.123,0,0,1-1.651.944l-.019.009-.454-.8a16.543,16.543,0,0,0,5.725-4.637,19.167,19.167,0,0,0,2.1-3.312,19.587,19.587,0,0,0,1.583-12.531c-.087-.526-.2-1.071-.348-1.606a.451.451,0,0,1,.367-.535.167.167,0,0,1,.058-.027.553.553,0,0,1,.666.327c.135.553.251,1.107.347,1.642A21.47,21.47,0,0,1,942.852,478.345Z" transform="translate(-932.03 -472.914)" fill="#707070"/>
            </g>
            <g id="Group_48" data-name="Group 48" transform="translate(8.907 0.036)">
              <path id="Path_29" data-name="Path 29" d="M961.282,488.875v.907h-.029a18.876,18.876,0,0,1-9.567-2.613,21,21,0,0,1-4.586-3.511,22.159,22.159,0,0,1-3.929-5.308,21.733,21.733,0,0,1-1.409-3.248c-.183-.508-.348-1.025-.492-1.57a.482.482,0,0,1,.434-.563.109.109,0,0,1,.077-.009.5.5,0,0,1,.579.327,16.772,16.772,0,0,0,.492,1.615,20.917,20.917,0,0,0,3.562,6.551,19.93,19.93,0,0,0,4.672,4.265,17.972,17.972,0,0,0,10.166,3.158Z" transform="translate(-941.256 -472.954)" fill="#707070"/>
            </g>
          </g>
        </g>
        <ellipse id="Ellipse_1" data-name="Ellipse 1" cx="45.857" cy="43.1" rx="45.857" ry="43.1" transform="translate(35.127 31.382)" fill="#f7b57f" stroke="#707070" stroke-width="1"/>
      </g>
      <g id="Group_78" data-name="Group 78" transform="translate(136.679 0)">
        <path id="Path_30" data-name="Path 30" d="M1030.018,494.625c-.133-.006-.239.144-.249.334a.235.235,0,0,0,0,.047.174.174,0,0,0,0,.041c.01.184.116.34.249.333a8.486,8.486,0,0,0,.87-.056,14.014,14.014,0,0,1,3.746.818c.555.19,1.07.394,1.531.6.485.2.947.4,1.342.594a13.1,13.1,0,0,1,3.644,2.188l.006.007a9.066,9.066,0,0,1,1.671,2.219c.13.259.283.478.419.737.07.134.139.268.206.4l.213.393c.143.272.282.559.421.859.14.281.283.577.412.886s.266.637.386.968.239.655.342,1a10.566,10.566,0,0,1,.408,2.207,7.984,7.984,0,0,0-.06.8c-.006.125.153.224.356.234a.284.284,0,0,0,.05,0,.2.2,0,0,0,.043,0c.2-.01.362-.109.355-.234a7.1,7.1,0,0,0-.06-.818,11.877,11.877,0,0,1,.87-3.521c.2-.522.419-1.006.634-1.439.213-.456.422-.89.632-1.261a12.147,12.147,0,0,1,2.328-3.425l.007-.006a9.63,9.63,0,0,1,2.361-1.57c.276-.122.509-.266.784-.394.143-.066.286-.131.426-.194l.418-.2c.289-.134.6-.265.913-.4.3-.132.614-.266.943-.387s.678-.25,1.03-.363.7-.224,1.066-.321a12.57,12.57,0,0,1,2.348-.384c.279.031.558.05.851.056.133.006.239-.144.249-.334a.243.243,0,0,0,0-.047.18.18,0,0,0,0-.041c-.01-.184-.116-.34-.249-.333a8.482,8.482,0,0,0-.87.056,14.017,14.017,0,0,1-3.746-.818c-.555-.19-1.07-.394-1.531-.6-.485-.2-.947-.4-1.342-.594a13.1,13.1,0,0,1-3.644-2.188l-.006-.007a9.068,9.068,0,0,1-1.671-2.219c-.13-.259-.283-.478-.419-.737-.07-.134-.139-.268-.206-.4l-.213-.393c-.143-.272-.282-.559-.421-.859-.14-.281-.283-.577-.412-.887s-.267-.637-.386-.968-.239-.655-.342-1a10.565,10.565,0,0,1-.408-2.207c.033-.263.053-.525.06-.8.006-.125-.153-.224-.356-.234a.285.285,0,0,0-.05,0,.207.207,0,0,0-.043,0c-.2.01-.362.109-.355.234a7.291,7.291,0,0,0,.06.818,11.877,11.877,0,0,1-.87,3.521c-.2.521-.419,1.006-.634,1.439-.213.456-.422.89-.632,1.261a12.146,12.146,0,0,1-2.328,3.425l-.007.006a9.629,9.629,0,0,1-2.361,1.57c-.276.122-.509.266-.784.394-.143.066-.285.131-.426.194l-.418.2c-.289.134-.6.265-.914.4-.3.132-.614.266-.943.387s-.678.25-1.03.363-.7.224-1.066.321a12.567,12.567,0,0,1-2.348.384C1030.589,494.65,1030.311,494.632,1030.018,494.625Z" transform="translate(-1011.601 -451.309)" fill="#f2ad61"/>
        <g id="Group_64" data-name="Group 64" transform="translate(16.438 28.46)">
          <g id="Group_54" data-name="Group 54" transform="translate(0 10.704)">
            <g id="Group_52" data-name="Group 52">
              <path id="Path_31" data-name="Path 31" d="M1055.686,497.466a.174.174,0,0,0,0,.041c.01.184.116.34.249.333a8.486,8.486,0,0,0,.87-.056,11.461,11.461,0,0,0,1.754-.324,17.21,17.21,0,0,0,1.88-.587c.3-.109.581-.221.853-.34s.572-.231.838-.35.528-.241.773-.359.515-.234.751-.35c.459-.237.957-.449,1.358-.677a10.058,10.058,0,0,0,2.389-1.545l.006-.007-.332-.312a9.629,9.629,0,0,1-2.361,1.57c-.276.122-.509.266-.784.394-.143.066-.285.131-.426.194l-.418.2c-.289.134-.6.265-.914.4-.3.132-.614.266-.943.387s-.678.25-1.03.363-.7.224-1.066.321a12.57,12.57,0,0,1-2.348.384,7.639,7.639,0,0,1-.854.028C1055.809,497.169,1055.7,497.295,1055.686,497.466Z" transform="translate(-1055.683 -492.933)" fill="#707070"/>
            </g>
            <g id="Group_53" data-name="Group 53" transform="translate(0 4.152)">
              <path id="Path_32" data-name="Path 32" d="M1055.683,498.373a.235.235,0,0,0,0,.047c.023.165.12.294.242.29a8.14,8.14,0,0,1,.874.028,14.014,14.014,0,0,1,3.746.818c.555.19,1.07.394,1.531.6.485.2.947.4,1.342.594a13.092,13.092,0,0,1,3.644,2.188l.006.007.332-.312-.006-.007a11.968,11.968,0,0,0-3.182-1.954c-.366-.175-.728-.365-1.159-.553-.412-.194-.831-.393-1.315-.593a20.117,20.117,0,0,0-3.186-1.108,10.868,10.868,0,0,0-1.773-.319c-.28-.031-.558-.05-.851-.056C1055.8,498.033,1055.693,498.183,1055.683,498.373Z" transform="translate(-1055.683 -498.039)" fill="#707070"/>
            </g>
          </g>
          <g id="Group_57" data-name="Group 57" transform="translate(11.389 19.446)">
            <g id="Group_55" data-name="Group 55">
              <path id="Path_33" data-name="Path 33" d="M1050.364,503.683l-.332.312a9.066,9.066,0,0,1,1.671,2.219c.13.259.283.478.419.737.07.134.139.268.206.4l.213.393c.143.272.282.559.421.859.14.281.283.577.412.886s.266.637.386.968.239.655.342,1a10.581,10.581,0,0,1,.408,2.207,6.4,6.4,0,0,1,.03.8c0,.112.133.212.316.228a.2.2,0,0,0,.043,0c.2-.01.362-.109.355-.234a7.1,7.1,0,0,0-.06-.818,9.657,9.657,0,0,0-.345-1.648,14.673,14.673,0,0,0-.625-1.767c-.116-.278-.235-.546-.362-.8s-.246-.537-.372-.787-.256-.5-.382-.727-.249-.484-.372-.706c-.252-.431-.478-.9-.721-1.277a9.431,9.431,0,0,0-1.644-2.245Z" transform="translate(-1050.032 -503.683)" fill="#707070"/>
            </g>
            <g id="Group_56" data-name="Group 56" transform="translate(4.417)">
              <path id="Path_34" data-name="Path 34" d="M1049.816,503.683l-.007.006a11.137,11.137,0,0,0-2.079,2.991c-.186.344-.388.684-.588,1.09-.206.387-.418.781-.631,1.236a17.482,17.482,0,0,0-1.179,2.994,9.129,9.129,0,0,0-.339,1.667c-.033.263-.053.524-.06.8-.006.125.153.224.356.234a.28.28,0,0,0,.05,0c.176-.022.312-.112.309-.228a6.77,6.77,0,0,1,.03-.821,11.881,11.881,0,0,1,.87-3.521c.2-.522.419-1.006.634-1.439.213-.456.422-.89.632-1.261a12.147,12.147,0,0,1,2.328-3.425l.007-.006Z" transform="translate(-1044.933 -503.683)" fill="#707070"/>
            </g>
          </g>
          <g id="Group_60" data-name="Group 60" transform="translate(20.689 10.704)">
            <g id="Group_58" data-name="Group 58" transform="translate(0 4.146)">
              <path id="Path_35" data-name="Path 35" d="M1031.775,502.621l-.006.007.332.312a9.628,9.628,0,0,1,2.361-1.57c.276-.122.509-.266.784-.394.143-.066.285-.131.426-.194l.418-.2c.289-.134.6-.265.914-.4.3-.132.614-.266.943-.387s.678-.25,1.03-.363.7-.224,1.066-.321a12.567,12.567,0,0,1,2.348-.384,7.635,7.635,0,0,1,.854-.028c.12,0,.226-.125.242-.3a.174.174,0,0,0,0-.041c-.01-.184-.116-.34-.249-.333a8.478,8.478,0,0,0-.87.056,11.368,11.368,0,0,0-1.754.324,17.016,17.016,0,0,0-1.88.587c-.3.109-.582.221-.853.34s-.572.231-.838.35-.528.241-.773.359-.515.234-.751.35c-.459.237-.957.449-1.358.677A10.055,10.055,0,0,0,1031.775,502.621Z" transform="translate(-1031.769 -498.032)" fill="#707070"/>
            </g>
            <g id="Group_59" data-name="Group 59">
              <path id="Path_36" data-name="Path 36" d="M1032.1,492.933l-.332.312.006.007a11.967,11.967,0,0,0,3.182,1.954c.366.175.728.365,1.159.553.412.194.831.393,1.315.593a20.111,20.111,0,0,0,3.185,1.108,10.869,10.869,0,0,0,1.774.319c.279.031.558.05.85.056.133.006.239-.144.249-.334a.235.235,0,0,0,0-.047c-.023-.165-.12-.294-.242-.29a8.138,8.138,0,0,1-.874-.028,14.014,14.014,0,0,1-3.746-.818c-.555-.19-1.07-.394-1.531-.6-.485-.2-.946-.4-1.342-.594a13.091,13.091,0,0,1-3.644-2.188Z" transform="translate(-1031.769 -492.933)" fill="#707070"/>
            </g>
          </g>
          <g id="Group_63" data-name="Group 63" transform="translate(11.389)">
            <g id="Group_61" data-name="Group 61" transform="translate(4.411)">
              <path id="Path_37" data-name="Path 37" d="M1044.933,480a7.32,7.32,0,0,0,.06.818,9.656,9.656,0,0,0,.345,1.648,14.673,14.673,0,0,0,.625,1.767c.116.278.235.546.362.8s.246.538.372.787.256.5.383.727.249.484.372.706c.252.431.478.9.721,1.277a9.43,9.43,0,0,0,1.644,2.245l.007.006.332-.312a9.065,9.065,0,0,1-1.671-2.219c-.13-.259-.283-.478-.419-.737-.07-.134-.139-.268-.206-.4l-.213-.393c-.143-.272-.282-.559-.421-.859-.14-.281-.283-.577-.412-.887s-.266-.637-.386-.968-.239-.655-.342-1a10.557,10.557,0,0,1-.408-2.207,6.307,6.307,0,0,1-.03-.8c0-.112-.133-.212-.316-.228a.206.206,0,0,0-.043,0C1045.092,479.779,1044.926,479.878,1044.933,480Z" transform="translate(-1044.933 -479.769)" fill="#707070"/>
            </g>
            <g id="Group_62" data-name="Group 62">
              <path id="Path_38" data-name="Path 38" d="M1054.54,480a6.77,6.77,0,0,1-.029.821,11.877,11.877,0,0,1-.87,3.521c-.2.521-.419,1.006-.634,1.439-.213.456-.422.89-.632,1.261a12.146,12.146,0,0,1-2.328,3.425l-.007.006.332.312.007-.006a11.14,11.14,0,0,0,2.079-2.991c.186-.344.388-.684.588-1.09.206-.387.418-.781.631-1.236a17.473,17.473,0,0,0,1.179-2.994,9.129,9.129,0,0,0,.339-1.667,7.985,7.985,0,0,0,.06-.8c.006-.125-.153-.224-.356-.234a.289.289,0,0,0-.05,0C1054.673,479.794,1054.536,479.884,1054.54,480Z" transform="translate(-1050.039 -479.769)" fill="#707070"/>
            </g>
          </g>
        </g>
        <path id="Path_39" data-name="Path 39" d="M1051.018,459.625c-.133-.006-.239.144-.249.334a.235.235,0,0,0,0,.047.174.174,0,0,0,0,.041c.01.184.116.34.249.333a8.493,8.493,0,0,0,.87-.056,14.016,14.016,0,0,1,3.746.818c.555.19,1.07.394,1.531.6.485.2.946.4,1.342.594a13.09,13.09,0,0,1,3.644,2.188l.006.007a9.066,9.066,0,0,1,1.671,2.219c.13.259.283.478.419.737.07.134.139.268.206.4l.213.393c.143.272.282.559.421.859.14.281.283.577.412.886s.266.638.386.968.239.655.342,1a10.557,10.557,0,0,1,.408,2.207,7.948,7.948,0,0,0-.06.8c-.006.125.153.224.355.234a.288.288,0,0,0,.05,0,.205.205,0,0,0,.043,0c.2-.01.362-.109.355-.234a7.1,7.1,0,0,0-.06-.818,11.877,11.877,0,0,1,.87-3.521c.2-.522.419-1.006.634-1.439.213-.456.422-.89.632-1.261a12.144,12.144,0,0,1,2.328-3.425l.007-.006a9.631,9.631,0,0,1,2.361-1.57c.276-.122.509-.266.784-.394.143-.066.286-.131.426-.194l.418-.2c.289-.134.6-.265.914-.4.3-.132.614-.266.943-.387s.678-.25,1.031-.363.7-.224,1.066-.321a12.568,12.568,0,0,1,2.348-.384c.279.031.558.05.85.056.133.006.239-.144.249-.334a.235.235,0,0,0,0-.047.174.174,0,0,0,0-.041c-.01-.184-.116-.34-.249-.333a8.493,8.493,0,0,0-.87.056,14.016,14.016,0,0,1-3.746-.818c-.555-.19-1.07-.394-1.531-.6-.485-.2-.946-.4-1.342-.594a13.092,13.092,0,0,1-3.644-2.188l-.006-.007a9.069,9.069,0,0,1-1.671-2.219c-.13-.259-.283-.478-.419-.737-.07-.134-.139-.268-.206-.4l-.213-.393c-.143-.272-.282-.559-.421-.859-.14-.281-.283-.577-.412-.887s-.266-.637-.386-.968-.239-.655-.342-1a10.565,10.565,0,0,1-.408-2.207,7.984,7.984,0,0,0,.06-.8c.006-.125-.153-.224-.356-.234a.286.286,0,0,0-.05,0,.206.206,0,0,0-.043,0c-.2.01-.362.109-.355.234a7.291,7.291,0,0,0,.06.818,11.885,11.885,0,0,1-.87,3.521c-.2.521-.419,1.006-.634,1.439-.213.456-.422.89-.632,1.261a12.146,12.146,0,0,1-2.328,3.425l-.007.006a9.627,9.627,0,0,1-2.361,1.57c-.276.122-.509.266-.784.394-.143.066-.285.131-.426.194l-.418.2c-.289.134-.6.265-.914.4-.3.132-.614.266-.943.387s-.678.25-1.031.363-.7.224-1.066.321a12.57,12.57,0,0,1-2.348.384C1051.589,459.65,1051.311,459.632,1051.018,459.625Z" transform="translate(-1050.769 -444.769)" fill="#f2ad61"/>
        <g id="Group_77" data-name="Group 77" transform="translate(2.596)">
          <g id="Group_67" data-name="Group 67" transform="translate(0 10.704)">
            <g id="Group_65" data-name="Group 65">
              <path id="Path_40" data-name="Path 40" d="M1071.686,462.466a.174.174,0,0,0,0,.041c.01.184.116.34.249.333a8.5,8.5,0,0,0,.87-.056,11.47,11.47,0,0,0,1.754-.324,17.191,17.191,0,0,0,1.88-.587c.3-.109.582-.221.853-.34s.572-.231.838-.35.528-.241.773-.359.515-.234.751-.35c.458-.237.957-.449,1.358-.677a10.06,10.06,0,0,0,2.389-1.545l.006-.007-.332-.312a9.627,9.627,0,0,1-2.361,1.57c-.276.122-.509.266-.784.394-.143.066-.285.131-.426.194l-.418.2c-.289.134-.6.265-.914.4-.3.132-.614.266-.943.387s-.678.25-1.031.363-.7.224-1.066.321a12.57,12.57,0,0,1-2.348.384,7.635,7.635,0,0,1-.854.028C1071.809,462.169,1071.7,462.295,1071.686,462.466Z" transform="translate(-1071.683 -457.933)" fill="#707070"/>
            </g>
            <g id="Group_66" data-name="Group 66" transform="translate(0 4.152)">
              <path id="Path_41" data-name="Path 41" d="M1071.683,463.373a.235.235,0,0,0,0,.047c.023.165.12.294.242.29a8.145,8.145,0,0,1,.874.028,14.016,14.016,0,0,1,3.746.818c.555.19,1.07.394,1.531.6.485.2.946.4,1.342.594a13.088,13.088,0,0,1,3.644,2.188l.006.007.332-.312-.006-.007a11.968,11.968,0,0,0-3.182-1.954c-.366-.175-.728-.365-1.159-.553-.412-.194-.83-.393-1.315-.593a20.107,20.107,0,0,0-3.185-1.108,10.869,10.869,0,0,0-1.774-.319c-.279-.031-.558-.05-.85-.056C1071.8,463.033,1071.693,463.183,1071.683,463.373Z" transform="translate(-1071.683 -463.039)" fill="#707070"/>
            </g>
          </g>
          <g id="Group_70" data-name="Group 70" transform="translate(11.389 19.446)">
            <g id="Group_68" data-name="Group 68">
              <path id="Path_42" data-name="Path 42" d="M1066.364,468.683l-.332.312a9.063,9.063,0,0,1,1.671,2.219c.13.259.283.478.419.737.07.134.139.268.206.4l.213.393c.143.272.282.559.421.859.14.281.283.577.412.886s.266.638.386.969.239.655.342,1a10.565,10.565,0,0,1,.408,2.207,6.352,6.352,0,0,1,.03.8c0,.112.133.212.316.228a.206.206,0,0,0,.043,0c.2-.01.362-.109.355-.234a7.1,7.1,0,0,0-.06-.818,9.657,9.657,0,0,0-.345-1.648,14.677,14.677,0,0,0-.625-1.767c-.116-.278-.235-.546-.362-.8s-.246-.537-.372-.787-.256-.5-.382-.727-.249-.484-.372-.706c-.252-.431-.478-.9-.721-1.277a9.428,9.428,0,0,0-1.644-2.245Z" transform="translate(-1066.032 -468.683)" fill="#707070"/>
            </g>
            <g id="Group_69" data-name="Group 69" transform="translate(4.417)">
              <path id="Path_43" data-name="Path 43" d="M1065.816,468.683l-.007.006a11.134,11.134,0,0,0-2.079,2.991c-.186.344-.389.684-.588,1.09-.206.387-.418.781-.631,1.236a17.473,17.473,0,0,0-1.179,2.994,9.13,9.13,0,0,0-.339,1.667,7.948,7.948,0,0,0-.06.8c-.006.125.153.224.355.234a.285.285,0,0,0,.05,0c.176-.022.312-.112.309-.228a6.77,6.77,0,0,1,.03-.821,11.881,11.881,0,0,1,.87-3.521c.2-.522.419-1.006.634-1.439.213-.456.422-.89.632-1.261a12.144,12.144,0,0,1,2.328-3.425l.007-.006Z" transform="translate(-1060.933 -468.683)" fill="#707070"/>
            </g>
          </g>
          <g id="Group_73" data-name="Group 73" transform="translate(20.689 10.704)">
            <g id="Group_71" data-name="Group 71" transform="translate(0 4.146)">
              <path id="Path_44" data-name="Path 44" d="M1047.775,467.621l-.006.007.332.312a9.629,9.629,0,0,1,2.361-1.57c.276-.122.509-.266.784-.394.143-.066.285-.131.426-.194l.418-.2c.289-.134.6-.265.914-.4.3-.132.614-.266.943-.387s.678-.25,1.03-.363.7-.224,1.066-.321a12.57,12.57,0,0,1,2.348-.384,7.636,7.636,0,0,1,.854-.028c.119,0,.226-.125.242-.3a.174.174,0,0,0,0-.041c-.01-.184-.116-.34-.249-.333a8.491,8.491,0,0,0-.87.056,11.364,11.364,0,0,0-1.754.324,17.016,17.016,0,0,0-1.88.587c-.3.109-.581.221-.853.34s-.572.231-.838.35-.528.241-.773.359-.515.234-.751.35c-.459.237-.957.449-1.358.677A10.061,10.061,0,0,0,1047.775,467.621Z" transform="translate(-1047.769 -463.032)" fill="#707070"/>
            </g>
            <g id="Group_72" data-name="Group 72">
              <path id="Path_45" data-name="Path 45" d="M1048.1,457.933l-.332.312.006.007a11.971,11.971,0,0,0,3.182,1.954c.366.175.728.365,1.159.553.412.194.831.393,1.315.593a20.113,20.113,0,0,0,3.186,1.108,10.868,10.868,0,0,0,1.773.319c.279.031.558.05.85.056.133.006.239-.144.249-.334a.235.235,0,0,0,0-.047c-.023-.165-.12-.294-.242-.29a8.142,8.142,0,0,1-.874-.028,14.014,14.014,0,0,1-3.746-.818c-.555-.19-1.07-.394-1.531-.6-.485-.2-.946-.4-1.342-.594a13.09,13.09,0,0,1-3.644-2.188Z" transform="translate(-1047.769 -457.933)" fill="#707070"/>
            </g>
          </g>
          <g id="Group_76" data-name="Group 76" transform="translate(11.389)">
            <g id="Group_74" data-name="Group 74" transform="translate(4.411)">
              <path id="Path_46" data-name="Path 46" d="M1060.933,445a7.262,7.262,0,0,0,.06.818,9.645,9.645,0,0,0,.345,1.648,14.652,14.652,0,0,0,.625,1.767c.116.278.235.546.362.8s.246.537.372.787.256.5.382.727.249.484.372.706c.252.431.478.9.721,1.277a9.425,9.425,0,0,0,1.644,2.245l.007.006.332-.312a9.066,9.066,0,0,1-1.671-2.219c-.13-.259-.283-.478-.419-.737-.07-.134-.139-.268-.206-.4l-.213-.393c-.143-.272-.282-.559-.421-.859-.14-.281-.283-.577-.412-.887s-.266-.637-.386-.968-.239-.655-.342-1a10.557,10.557,0,0,1-.408-2.207,6.307,6.307,0,0,1-.03-.8c0-.112-.133-.212-.316-.228a.205.205,0,0,0-.043,0C1061.092,444.779,1060.926,444.878,1060.933,445Z" transform="translate(-1060.933 -444.769)" fill="#707070"/>
            </g>
            <g id="Group_75" data-name="Group 75">
              <path id="Path_47" data-name="Path 47" d="M1070.539,445a6.77,6.77,0,0,1-.029.821,11.877,11.877,0,0,1-.87,3.521c-.2.521-.419,1.006-.634,1.439-.213.456-.422.89-.632,1.261a12.144,12.144,0,0,1-2.328,3.425l-.007.006.332.312.007-.006a11.134,11.134,0,0,0,2.079-2.991c.186-.344.388-.684.588-1.09.206-.387.418-.781.631-1.236a17.482,17.482,0,0,0,1.179-2.994,9.15,9.15,0,0,0,.339-1.667,7.984,7.984,0,0,0,.06-.8c.006-.125-.153-.224-.356-.234a.287.287,0,0,0-.05,0C1070.672,444.794,1070.536,444.884,1070.539,445Z" transform="translate(-1066.039 -444.769)" fill="#707070"/>
            </g>
          </g>
        </g>
      </g>
    </g>
  </g>
</svg>
